<svg class="animated" id="freepik_stories-people-flying" xmlns="http://www.w3.org/2000/svg" viewBox="0 0 750 500" version="1.1" xmlns:xlink="http://www.w3.org/1999/xlink" xmlns:svgjs="http://svgjs.com/svgjs"><style>svg#freepik_stories-people-flying:not(.animated) .animable {opacity: 0;}svg#freepik_stories-people-flying.animated #freepik--background-complete--inject-86 {animation: 1s 1 forwards cubic-bezier(.36,-0.01,.5,1.38) fadeIn,6s Infinite  linear floating;animation-delay: 0s,1s;}svg#freepik_stories-people-flying.animated #freepik--character-2--inject-86 {animation: 1s 1 forwards cubic-bezier(.36,-0.01,.5,1.38) slideLeft,1.5s Infinite  linear floating;animation-delay: 0.1s,1.1s;opacity: 0}svg#freepik_stories-people-flying.animated #freepik--character-3--inject-86 {animation: 1s 1 forwards cubic-bezier(.36,-0.01,.5,1.38) slideLeft,1.5s Infinite  linear floating;animation-delay: 0s,1s;}svg#freepik_stories-people-flying.animated #freepik--character-1--inject-86 {animation: 1s 1 forwards cubic-bezier(.36,-0.01,.5,1.38) slideLeft,1.5s Infinite  linear floating;animation-delay: 0s,1s;}            @keyframes fadeIn {                0% {                    opacity: 0;                }                100% {                    opacity: 1;                }            }                    @keyframes floating {                0% {                    opacity: 1;                    transform: translateY(0px);                }                50% {                    transform: translateY(-10px);                }                100% {                    opacity: 1;                    transform: translateY(0px);                }            }                    @keyframes slideLeft {                0% {                    opacity: 0;                    transform: translateX(-30px);                }                100% {                    opacity: 1;                    transform: translateX(0);                }            }        </style><g id="freepik--background-complete--inject-86" class="animable animator-active" style="transform-origin: 374.996px 250.009px;"><path d="M499.2,132.84c9.63,0,171.56,1.07,181.73.74.74,0,1.13-1.1.4-1.46-6.41-3.17-13.69-2.53-20.36-4.78-3.92-1.32-6.33-3.89-9.05-6.83a18.82,18.82,0,0,0-8.43-5.5,17.83,17.83,0,0,0-9.17-.29c-3.29.79-6.14,2.67-9.27,3.85-7.78,2.94-15.34.15-20.9-5.61-4.58-4.74-9.08-9.22-15.31-11.77-5.21-2.15-11-2.59-16.22-.23-5.94,2.69-10,8.1-15.59,11.36-6.62,3.86-14.53,3-21.83,4.12s-12.92,7.31-19.32,10.86a13.73,13.73,0,0,1-7,2.16c-1.44,0-2.84-.42-4.26-.6-2.2-.27-4.3-.21-5.78,1.63C498.5,130.94,498.57,132.84,499.2,132.84Z" style="fill: rgb(235, 235, 235); transform-origin: 590.179px 116.509px;" id="elvgnbk42blce" class="animable"></path><path d="M52.79,329.78c9.63,0,171.56,1.07,181.74.75.73,0,1.12-1.1.39-1.46-6.41-3.18-13.69-2.54-20.36-4.79-3.92-1.32-6.33-3.88-9.05-6.82a18.76,18.76,0,0,0-8.43-5.51,17.83,17.83,0,0,0-9.17-.28c-3.29.78-6.14,2.66-9.27,3.85-7.78,2.93-15.34.14-20.9-5.61-4.58-4.75-9.08-9.22-15.31-11.78-5.21-2.14-11-2.59-16.22-.22-5.94,2.69-10,8.1-15.59,11.35-6.62,3.87-14.53,3-21.83,4.12s-12.91,7.32-19.32,10.86a13.64,13.64,0,0,1-7,2.16,40.8,40.8,0,0,1-4.26-.6c-2.2-.27-4.3-.21-5.78,1.63C52.09,327.88,52.16,329.78,52.79,329.78Z" style="fill: rgb(235, 235, 235); transform-origin: 143.769px 313.455px;" id="elzl0irkdm4js" class="animable"></path><path d="M63.06,77.44c7,0,125.25.78,132.68.54.54,0,.82-.8.29-1.06-4.68-2.32-10-1.85-14.86-3.49-2.87-1-4.63-2.84-6.61-5a13.74,13.74,0,0,0-6.16-4,13.09,13.09,0,0,0-6.69-.21c-2.4.58-4.48,2-6.77,2.82-5.68,2.14-11.2.1-15.26-4.1-3.34-3.46-6.63-6.73-11.18-8.6a14.82,14.82,0,0,0-11.84-.16c-4.34,2-7.31,5.91-11.38,8.29-4.83,2.82-10.61,2.15-15.94,3s-9.43,5.34-14.1,7.92A9.93,9.93,0,0,1,70.14,75c-1,0-2.08-.31-3.11-.43-1.61-.2-3.14-.16-4.22,1.19C62.55,76.05,62.6,77.44,63.06,77.44Z" style="fill: rgb(235, 235, 235); transform-origin: 129.483px 65.5253px;" id="elu0zyx4q2tk" class="animable"></path><path d="M314.1,446.4c7,0,125.25.78,132.68.55.53,0,.82-.81.29-1.07-4.69-2.32-10-1.85-14.87-3.49-2.86-1-4.62-2.84-6.61-5a13.64,13.64,0,0,0-6.15-4,12.91,12.91,0,0,0-6.7-.21c-2.4.57-4.48,1.94-6.77,2.81-5.68,2.14-11.2.1-15.25-4.1-3.34-3.46-6.63-6.73-11.18-8.6a14.87,14.87,0,0,0-11.84-.16c-4.34,2-7.31,5.92-11.39,8.29-4.83,2.82-10.6,2.16-15.93,3s-9.43,5.34-14.11,7.93a10.09,10.09,0,0,1-5.1,1.58c-1,0-2.07-.31-3.1-.44-1.61-.2-3.14-.16-4.22,1.19C313.58,445,313.64,446.4,314.1,446.4Z" style="fill: rgb(235, 235, 235); transform-origin: 380.52px 434.486px;" id="elu0bv5a93m5l" class="animable"></path><path d="M317,181.64c7,0,125.25.78,132.68.54.54,0,.82-.8.29-1.06-4.68-2.32-10-1.86-14.86-3.5-2.87-1-4.62-2.84-6.61-5a13.76,13.76,0,0,0-6.15-4,13,13,0,0,0-6.7-.21c-2.4.57-4.48,2-6.77,2.81-5.68,2.15-11.2.11-15.25-4.09-3.35-3.47-6.64-6.74-11.18-8.6a14.85,14.85,0,0,0-11.85-.17c-4.33,2-7.31,5.92-11.38,8.3-4.83,2.82-10.61,2.15-15.94,3s-9.43,5.35-14.1,7.93a9.93,9.93,0,0,1-5.1,1.58c-1.05,0-2.07-.31-3.11-.44-1.61-.2-3.14-.15-4.22,1.19C316.51,180.25,316.56,181.64,317,181.64Z" style="fill: rgb(235, 235, 235); transform-origin: 383.43px 169.718px;" id="el79hegh7wq54" class="animable"></path><path d="M564.51,314.68c7,0,125.25.78,132.68.54.54,0,.82-.8.29-1.06-4.68-2.32-10-1.86-14.86-3.5-2.86-1-4.62-2.83-6.61-5a13.76,13.76,0,0,0-6.15-4,13,13,0,0,0-6.7-.21c-2.4.58-4.48,1.95-6.77,2.81-5.68,2.15-11.2.11-15.25-4.09-3.35-3.47-6.64-6.73-11.18-8.6a14.85,14.85,0,0,0-11.85-.16c-4.33,2-7.31,5.91-11.38,8.29-4.83,2.82-10.6,2.15-15.94,3s-9.42,5.35-14.1,7.93a9.93,9.93,0,0,1-5.1,1.58,29.83,29.83,0,0,1-3.11-.44c-1.61-.19-3.13-.15-4.22,1.19C564,313.29,564.05,314.68,564.51,314.68Z" style="fill: rgb(235, 235, 235); transform-origin: 630.933px 302.761px;" id="elb0kkesz61vp" class="animable"></path><path d="M207.85,231.88c.14.39,186.34,0,184,0-1.07,0,1.63-1.61.58-2.12-6.06-3-12.7-3.09-19.3-3.7-3.85-.35-7.8-.91-11.27-2.74s-5.7-5-8.19-8a35,35,0,0,0-31.79-12c-13.24,2.08-23.68,12.16-36.94,14-8,1.11-15.5-2-23.29-3.06-6.41-.89-11.75.36-17.48,3.2-4.2,2.08-8.09,3.84-12.83,4.16-3.65.26-7.31-.16-11-.19a24.54,24.54,0,0,0-16.13,6.44C203.65,228.4,201.77,231.88,207.85,231.88Z" style="fill: rgb(235, 235, 235); transform-origin: 298.085px 217.501px;" id="elm8gtn6gupgm" class="animable"></path><path d="M203.53,256a37.64,37.64,0,0,0-4.48-2.27,19.53,19.53,0,0,0-5-1.49,4.5,4.5,0,0,0-1.57.07,2.41,2.41,0,0,0-.49.2c-.13.07-.21.13-.32.2a6.41,6.41,0,0,0-.57.41,21.85,21.85,0,0,0-2,1.73c-1.21,1.19-2.31,2.45-3.4,3.75l1.27-.36a40.27,40.27,0,0,0-5-1.42,22.89,22.89,0,0,0-2.67-.36,9.79,9.79,0,0,0-1.43,0,5.84,5.84,0,0,0-.78.14,5.17,5.17,0,0,0-.79.31,9.24,9.24,0,0,0-2.15,1.81,24.14,24.14,0,0,0-1.65,2,33.85,33.85,0,0,0-2.69,4.42c1.19-1.25,2.34-2.5,3.55-3.67a24,24,0,0,1,1.84-1.69,8.19,8.19,0,0,1,1.9-1.29,4.71,4.71,0,0,1,2-.06,18.79,18.79,0,0,1,2.37.48c1.59.39,3.21.9,4.76,1.43l.78.27.49-.62c1-1.26,2.1-2.51,3.18-3.7.54-.59,1.1-1.18,1.66-1.68.14-.11.29-.25.42-.34l.2-.15s0,0,.07,0A2.61,2.61,0,0,1,194,254a24.45,24.45,0,0,1,4.71.77C200.31,255.13,201.9,255.57,203.53,256Z" style="fill: rgb(219, 219, 219); transform-origin: 186.67px 258.671px;" id="elt97bap4ozm" class="animable"></path><path d="M172.2,277a31.28,31.28,0,0,0-2.72-3.16,16.2,16.2,0,0,0-3.33-2.69,3.48,3.48,0,0,0-1.23-.44,1.59,1.59,0,0,0-.44,0l-.31.05c-.21,0-.38.09-.56.14a19.53,19.53,0,0,0-2,.71c-1.31.54-2.55,1.16-3.8,1.81l1.09.13a30.68,30.68,0,0,0-3.43-2.68,17.36,17.36,0,0,0-1.93-1.12,8.55,8.55,0,0,0-1.11-.44,3,3,0,0,0-.64-.14,3.27,3.27,0,0,0-.7,0,7.24,7.24,0,0,0-2.22.71,18.71,18.71,0,0,0-1.92,1.05,27.86,27.86,0,0,0-3.45,2.54c1.3-.58,2.58-1.18,3.88-1.7.65-.27,1.3-.52,1.95-.72a7,7,0,0,1,1.86-.39,3.89,3.89,0,0,1,1.57.59,16.79,16.79,0,0,1,1.67,1.12c1.1.8,2.18,1.7,3.2,2.6l.51.45.58-.33c1.17-.65,2.4-1.26,3.6-1.83a19.61,19.61,0,0,1,1.81-.77l.43-.13.19-.05s0,0,.08,0a1.87,1.87,0,0,1,.72.19,21,21,0,0,1,3.37,2.07C170,275.28,171.08,276.12,172.2,277Z" style="fill: rgb(219, 219, 219); transform-origin: 157.85px 273.076px;" id="el13fgoy4ivac" class="animable"></path><path d="M572.91,58.18a29.41,29.41,0,0,0-3.83-1.64,16.39,16.39,0,0,0-4.17-1,3.64,3.64,0,0,0-1.3.15,1.6,1.6,0,0,0-.4.19,2.93,2.93,0,0,0-.26.18,5.7,5.7,0,0,0-.44.37A17,17,0,0,0,561,58c-1,1-1.78,2.15-2.62,3.28l1-.36a32.73,32.73,0,0,0-4.27-.9,16.12,16.12,0,0,0-2.22-.15,6.93,6.93,0,0,0-1.19.08,4.16,4.16,0,0,0-.63.16,3.73,3.73,0,0,0-.64.3A7.68,7.68,0,0,0,548.77,62c-.46.58-.87,1.18-1.26,1.78a28.11,28.11,0,0,0-2,3.81c.91-1.1,1.8-2.2,2.74-3.24a20.21,20.21,0,0,1,1.43-1.49,7,7,0,0,1,1.5-1.17,4,4,0,0,1,1.67-.17,15.36,15.36,0,0,1,2,.28c1.34.24,2.71.57,4,.93l.66.18.38-.55c.77-1.1,1.6-2.18,2.43-3.23a15.55,15.55,0,0,1,1.29-1.48c.11-.11.22-.23.32-.31l.16-.13s0,0,.06,0a2.06,2.06,0,0,1,.73-.15,21,21,0,0,1,3.94.39C570.2,57.65,571.55,57.93,572.91,58.18Z" style="fill: rgb(219, 219, 219); transform-origin: 559.21px 61.5611px;" id="elw1nqksvyi8" class="animable"></path><path d="M547.21,435.45a30.78,30.78,0,0,0-2.37-3.43,16.14,16.14,0,0,0-3-3,3.87,3.87,0,0,0-1.17-.57,2.81,2.81,0,0,0-.44-.05l-.31,0c-.21,0-.39.05-.58.07a21.5,21.5,0,0,0-2.1.5c-1.36.39-2.66.88-4,1.39l1.07.24a30.81,30.81,0,0,0-3.13-3,16,16,0,0,0-1.8-1.32,7.44,7.44,0,0,0-1-.56,4.5,4.5,0,0,0-.62-.21,5.35,5.35,0,0,0-.7-.08,7.69,7.69,0,0,0-2.29.47,18.88,18.88,0,0,0-2,.84,28.49,28.49,0,0,0-3.71,2.16c1.36-.44,2.7-.9,4-1.28.67-.19,1.34-.38,2-.5a6.74,6.74,0,0,1,1.89-.19,3.75,3.75,0,0,1,1.5.75,14,14,0,0,1,1.54,1.29c1,.91,2,1.92,2.91,2.92l.46.5.61-.25c1.23-.53,2.52-1,3.78-1.45a17.32,17.32,0,0,1,1.87-.57l.45-.09.19,0s0,0,.08,0a2.44,2.44,0,0,1,.7.27,20.1,20.1,0,0,1,3.13,2.42C545.19,433.55,546.18,434.51,547.21,435.45Z" style="fill: rgb(219, 219, 219); transform-origin: 533.135px 430.44px;" id="el7flfvoyxdjd" class="animable"></path><path d="M287.13,304.31a44.64,44.64,0,0,0-5.15-3.53,24,24,0,0,0-5.85-2.63,5.37,5.37,0,0,0-1.95-.17,3,3,0,0,0-.64.16l-.43.19c-.28.13-.51.28-.76.41a29.9,29.9,0,0,0-2.68,1.82c-1.7,1.28-3.25,2.65-4.81,4.07l1.63-.23a48.13,48.13,0,0,0-6-2.57,26.81,26.81,0,0,0-3.23-.88,12.09,12.09,0,0,0-1.76-.22,6.53,6.53,0,0,0-1,0,7.4,7.4,0,0,0-1,.26,11.42,11.42,0,0,0-2.94,1.88c-.85.72-1.62,1.48-2.37,2.25a40.92,40.92,0,0,0-4,5c1.66-1.34,3.29-2.7,5-3.95.83-.63,1.68-1.25,2.54-1.78a10.32,10.32,0,0,1,2.55-1.28,5.9,5.9,0,0,1,2.5.25,23.46,23.46,0,0,1,2.85,1c1.89.74,3.8,1.63,5.63,2.54l.91.45.72-.69c1.45-1.39,3-2.74,4.51-4a27,27,0,0,1,2.32-1.81c.2-.12.4-.26.58-.35l.26-.15s0,0,.1,0a3,3,0,0,1,1.12,0,30,30,0,0,1,5.68,1.71C283.31,302.73,285.2,303.54,287.13,304.31Z" style="fill: rgb(219, 219, 219); transform-origin: 265.66px 304.038px;" id="elnra0hfid3d" class="animable"></path><path d="M606.54,88.89a45.51,45.51,0,0,0-3.87-4.9,24.23,24.23,0,0,0-4.81-4.26,5.22,5.22,0,0,0-1.81-.73,2.32,2.32,0,0,0-.66,0c-.18,0-.31,0-.46.06-.32,0-.58.11-.86.16a31.18,31.18,0,0,0-3.1.94c-2,.72-3.88,1.57-5.79,2.46l1.62.26a46.64,46.64,0,0,0-5-4.23,27.18,27.18,0,0,0-2.82-1.8,13.42,13.42,0,0,0-1.62-.73,5.27,5.27,0,0,0-.95-.25,7.31,7.31,0,0,0-1.05-.06,11.25,11.25,0,0,0-3.37.92,29.56,29.56,0,0,0-2.93,1.45,40.19,40.19,0,0,0-5.34,3.59c2-.79,3.94-1.61,5.93-2.3a30.6,30.6,0,0,1,3-1,10.28,10.28,0,0,1,2.81-.46,5.85,5.85,0,0,1,2.32,1,24.58,24.58,0,0,1,2.42,1.78c1.59,1.28,3.15,2.69,4.63,4.1l.74.71.88-.45c1.8-.9,3.67-1.73,5.51-2.51a27.41,27.41,0,0,1,2.75-1c.22,0,.46-.13.66-.17l.29-.06s0,0,.11,0a3.07,3.07,0,0,1,1.07.33A30.17,30.17,0,0,1,601.73,85C603.35,86.25,604.92,87.58,606.54,88.89Z" style="fill: rgb(219, 219, 219); transform-origin: 585.13px 82.3496px;" id="elf2sttj659c" class="animable"></path></g><g id="freepik--character-2--inject-86" class="animable" style="transform-origin: 467.701px 234.868px;"><path d="M608.3,188.77c-7.75,20.64-29.65,33.89-57.77,32.37C525,219.76,505.7,196,507.62,180.63c2-16.27,19.47-26.34,32.52-23.2,12.6,3,18.76,12.46,29.43,12.27,5.11-.09,12.78-4.41,21.68-5.07C600.36,163.94,613.12,175.91,608.3,188.77Z" style="fill: rgb(38, 50, 56); transform-origin: 558.421px 189.058px;" id="elwxuo0xvmt3f" class="animable"></path><path d="M515.85,205.86c4.4,6.19,11,10.89,18.52,13.93a60.77,60.77,0,0,0,50.38-3.95,56,56,0,0,0,19-18,59.08,59.08,0,0,1-19.3,17.41,57.65,57.65,0,0,1-12.21,5,60.25,60.25,0,0,1-12.82,2.13,66.15,66.15,0,0,1-12.69-.37,52.54,52.54,0,0,1-11.89-2.95,46.77,46.77,0,0,1-10.48-5.47A38.86,38.86,0,0,1,515.85,205.86Z" style="fill: rgb(38, 50, 56); transform-origin: 559.8px 210.663px;" id="el9jh4tjqb6mf" class="animable"></path><path d="M537,156a26.15,26.15,0,0,1,7.67,1.55,31.25,31.25,0,0,1,6.71,3.3c2.06,1.37,4.17,2.67,6.36,3.92a33,33,0,0,0,7.07,3.08,23.54,23.54,0,0,0,4,.82,17.85,17.85,0,0,0,4.19-.15,83.2,83.2,0,0,0,8.12-1.84,37.65,37.65,0,0,1,8-1.24,24.11,24.11,0,0,1,7.84,1.47,22.52,22.52,0,0,0-7.79-1.91,37,37,0,0,0-8.22,1c-2.71.57-5.37,1.33-8,1.68a16.76,16.76,0,0,1-3.93.1,21.91,21.91,0,0,1-3.74-.82c-4.93-1.4-9.06-4.19-13.34-6.71a32.09,32.09,0,0,0-7-3.14A25.67,25.67,0,0,0,537,156Z" style="fill: rgb(38, 50, 56); transform-origin: 566.98px 162.363px;" id="el5tcap8nz4sy" class="animable"></path><path d="M280.44,231.83c1.67-2.32,64.72-47.84,68.22-48.06,1.33-.09,8.49,8.71,16.85,19.58,1.8,2.35,34.59,34,34.59,34L358,268l-33.07-35.13s-31.93,6.63-35.79,6.45S278.77,234.16,280.44,231.83Z" style="fill: rgb(119, 68, 66); transform-origin: 340.136px 225.885px;" id="ele2n86t1ccd6" class="animable"></path><path d="M302.38,237.26c-6.27,1.16-11.76,2.07-13.23,2-3.86-.19-10.38-5.11-8.71-7.43s64.72-47.85,68.21-48.06c1.08-.08,6,5.69,12.28,13.69-15.66,8.57-64.51,35.72-61.24,39.17A5.18,5.18,0,0,0,302.38,237.26Z" style="fill: rgb(38, 50, 56); transform-origin: 320.551px 211.516px;" id="elndxighgvyrd" class="animable"></path><path d="M375.59,212l-41.32,35.51s56.12,58.92,85.13,65.65C444,318.82,506.53,281.61,544.07,265l-8.86-29.9c-27.69,4.44-86.31,29.41-98.5,28.78C428.57,263.44,375.59,212,375.59,212Z" style="fill: rgb(69, 90, 100); transform-origin: 439.17px 262.87px;" id="el6o65um10tyc" class="animable"></path><path d="M344.62,251.41c6.92-5.79,5-4,11.87-9.9,3.36-2.87,20.26-17.26,22.94-20.45.06-.07,0-.18-.11-.13-3.54,2.22-20.12,17-23.43,19.89-6.75,6-4.75,4.34-11.43,10.4A.12.12,0,1,0,344.62,251.41Z" style="fill: rgb(38, 50, 56); transform-origin: 361.935px 236.178px;" id="elch71kd6kqwc" class="animable"></path><path d="M528.67,237.53a430,430,0,0,0-64.22,21.1c-5.07,2.14-10.07,4.42-15.08,6.7-4.24,1.93-8.83,3.8-13.58,3-5.28-.93-9.56-4.65-13.65-7.85-4.52-3.53-9-7.06-13.45-10.69-4.79-3.91-9.49-7.92-14-12.15q-3.46-3.26-6.76-6.65-1.65-1.71-3.25-3.46c-.53-.58-4.18-4.66-4.71-5.25-.17-.19-.33-.61.12-.11,1,1.12,5.14,5.7,6.18,6.77,4.08,4.25,8.4,8.26,12.82,12.15s9.09,7.74,13.76,11.46,9.2,7.43,14,10.88a23.64,23.64,0,0,0,8,4.13,16.06,16.06,0,0,0,8.66-.51c5.3-1.64,10.3-4.46,15.38-6.66q15.79-6.86,32.14-12.36a377,377,0,0,1,37.57-10.63C528.73,237.35,528.77,237.51,528.67,237.53Z" style="fill: rgb(38, 50, 56); transform-origin: 454.262px 245.227px;" id="ely782ti5kqpn" class="animable"></path><path d="M226.88,283.62c.06-2.86,26.11-76.13,28.87-78.29,1-.83,11.93,2.34,25,6.55,2.81.91,5.72,1.86,8.66,2.85,19.13,6.38,39.27,13.6,39.27,13.6l-17.28,49.06-38.8-14.95-8.52-3.28s-22.52,23.59-25.8,25.64S226.83,286.49,226.88,283.62Z" style="fill: rgb(119, 68, 66); transform-origin: 277.78px 245.649px;" id="el0pl1c0ie3ddk" class="animable"></path><path d="M238.28,284.81c-3.29,2-11.46,1.68-11.4-1.18S253,207.5,255.74,205.32c.89-.69,8.78,1.45,19.06,4.67-7,12.75-36.51,66.83-31.67,68,.63.15,2.4-.73,4.54-2C243.33,280.35,239.49,284,238.28,284.81Z" style="fill: rgb(38, 50, 56); transform-origin: 250.84px 245.638px;" id="elsuprke2eo" class="animable"></path><path d="M277.22,269.39,295.35,215s94.86,23.25,108.69,23.6c11.42.29,76.31-20.55,79.17-23.06,14.43-12.65,28.25-16.46,49.88-8l3.17,45s-22.29-1.18-23.14-.73c-22,11.73-81.86,44.52-109.67,42.5C340.55,289.79,277.22,269.39,277.22,269.39Z" style="fill: rgb(69, 90, 100); transform-origin: 406.74px 248.706px;" id="el3j99kufe6z3" class="animable"></path><path d="M289.6,270.55c4.22-11.06,15.06-46.34,15.66-50.26,0-.08-.12-.13-.16,0-1.83,3.52-7.81,22-15.74,50.24A.13.13,0,0,0,289.6,270.55Z" style="fill: rgb(38, 50, 56); transform-origin: 297.31px 245.416px;" id="elfafpbyz5mka" class="animable"></path><path d="M535.49,253.76c-5.83-.31-15.74.17-16-3.19s11.92-3.07,14.71-3.24c2.53-.15,2.16-1-.82-1-8.11-.05-15.24.34-14.8,4.63s13,3.94,15.85,3.77C535.92,254.61,537.33,253.86,535.49,253.76Z" style="fill: rgb(38, 50, 56); transform-origin: 527.462px 250.572px;" id="elle838tmugxa" class="animable"></path><path d="M519.13,250.8a25.56,25.56,0,0,0-6.13.28c-.16.07,0,.71.12.77.85.38,4.82,0,5.9.05A.55.55,0,0,0,519.13,250.8Z" style="fill: rgb(38, 50, 56); transform-origin: 516.28px 251.375px;" id="el45j5k2cllf9" class="animable"></path><path d="M513.17,251.53c-8.79,4.13-17.41,8.66-26.11,13S470,273.1,461.3,277.17c-16,7.53-32.85,14.16-50.62,16a87.08,87.08,0,0,1-13.6.55c-4.13-.22-9.32-.82-13.52-1.33-.14,0,.12.07.25.11a86.44,86.44,0,0,0,11.27,2,82.17,82.17,0,0,0,12.45.29,102.2,102.2,0,0,0,24.32-4.32c18.36-5.34,35.42-14.43,52.41-23,9.83-5,19.76-9.83,29.38-15.2C514.16,252,513.68,251.29,513.17,251.53Z" style="fill: rgb(38, 50, 56); transform-origin: 448.692px 273.192px;" id="elrh523yowf8" class="animable"></path><path d="M404.46,238.72c-3.23-.7-6.51-1.23-9.75-1.89s-6.55-1.15-9.81-1.72c-6.56-1.14-13.07-2.44-19.61-3.68-3.74-.7-7.5-1.44-11.18-2.43a.11.11,0,0,0-.05.21c6.5,1.64,12.89,3.66,19.45,5.09s13.13,2.71,19.76,3.63c1.77.25,3.56.37,5.34.54,1.94.18,3.88.41,5.82.5A.13.13,0,0,0,404.46,238.72Z" style="fill: rgb(38, 50, 56); transform-origin: 379.269px 233.985px;" id="el0y9ov011rdwr" class="animable"></path><path d="M531.4,232.65a20.43,20.43,0,0,1-10.95-5.77A16.87,16.87,0,0,1,517,221.6c-.83-2.06-1.77-4.92-1-7.12.05-.12-.18-.19-.21,0a15.82,15.82,0,0,0-.52,3.93,13.9,13.9,0,0,0,.56,3.33,16.75,16.75,0,0,0,3.35,5.94c3,3.44,7.49,5.92,12.1,5.54C531.62,233.14,531.7,232.71,531.4,232.65Z" style="fill: rgb(38, 50, 56); transform-origin: 523.428px 223.81px;" id="ellzfjxfxsl2" class="animable"></path><path d="M527.5,209.78c-11.59-3.84-25-1.37-34.79,5.77-2.81,2-5.06,4.71-7.79,6.85-3.17,2.49-7.16,3.44-11,4.43-7.58,2-59.48,16.83-67.11,17.14-7.44.32-14.87-1.28-22.16-2.53q-11.67-2-23.29-4.24-23.34-4.45-46.55-9.59c-1.93-.43-3.86-.83-5.77-1.31a.11.11,0,0,0-.05.21c7.69,1.71,15.34,3.69,23,5.43s15.54,3.39,23.34,4.93,15.5,3,23.26,4.36c7.38,1.3,14.82,2.86,22.3,3.41a44,44,0,0,0,10.57-.39c3.69-.61,63.09-16.78,66.8-17.92a23.4,23.4,0,0,0,5.29-2.21,22.94,22.94,0,0,0,4.07-3.28,46.14,46.14,0,0,1,7.87-6.41,39.18,39.18,0,0,1,8.6-4,40.34,40.34,0,0,1,18.77-1.4,44,44,0,0,1,4.52,1C527.62,210.15,527.69,209.85,527.5,209.78Z" style="fill: rgb(38, 50, 56); transform-origin: 418.267px 226.386px;" id="elp94ixdade3l" class="animable"></path><path d="M578.94,218.26c14.3,18.44,32.47,29.37,40.65,29.55,6.6.15,12.25-2.49,19.95-5.2A199.89,199.89,0,0,0,663.4,232c2.38-1.22,4.35-2.29,5.74-3,3.45-1.86-4.8-27.13-8.82-28.33-.92-.27-3.4.62-6.7,2.15-11.12,5.15-31.85,18.2-33.78,17.8S606.1,215,590.11,209.14C579.06,205.1,569.49,206.08,578.94,218.26Z" style="fill: rgb(119, 68, 66); transform-origin: 622.526px 224.219px;" id="elye2r3pb9jd" class="animable"></path><path d="M663.4,232.05a102.82,102.82,0,0,0,13.09-2.74c3.35-1.08,12.9-4.46,12.07-8.27-.56-2.59-6.41-1.27-10.57-.42-2.19.45-5.5.08-5.75-1.36-.42-2.51,5.29-3.56,9.32-3.84,7.79-.54,19.21.26,20.7-4.9.56-1.94-2.26-2.88-5.75-3.31,5.07-.18,10.11-.92,10.82-3.06.41-1.22-.15-2.13-1.31-2.83a3,3,0,0,0,2.46-2.29c.34-2-1.44-3.4-4-4.37a1.69,1.69,0,0,0,.59-1.4c-.09-5.4-19.62-7.81-24.54-5.94-14.49,5.49-27,15.56-27,15.56C651.31,210.12,663.39,232,663.4,232.05Z" style="fill: rgb(119, 68, 66); transform-origin: 680.89px 209.372px;" id="elgv2k0eg0i85" class="animable"></path><path d="M673.87,208a24.6,24.6,0,0,1,10.49-2.44c4.27,0,8.43,1.19,12.65,1.63.12,0,.09.19,0,.18-2.06-.32-4.16-.42-6.23-.65s-4-.51-6.08-.59A24.36,24.36,0,0,0,673.89,208,0,0,0,1,1,673.87,208Z" style="fill: rgb(38, 50, 56); transform-origin: 685.48px 206.78px;" id="el2cqqdwg1a3e" class="animable"></path><path d="M672.6,201.11a60.55,60.55,0,0,1,12-3.21c4.48-.56,9,.44,13.33,1.37,2.62.55,5.24,1.16,7.83,1.84.11,0,.09.2,0,.18q-6.71-1.48-13.48-2.56a32,32,0,0,0-12.6.42c-2.37.55-4.68,1.29-7,2C672.59,201.19,672.56,201.12,672.6,201.11Z" style="fill: rgb(38, 50, 56); transform-origin: 689.209px 199.515px;" id="elj78hsbfud9f" class="animable"></path><path d="M673,194.1c3.63-1.5,6.79-2.83,10.77-3,5.26-.27,11.45,1.09,13.63,1.59,2.41.54,4.8,1.17,7.17,1.83.1,0,.06.19,0,.17a126,126,0,0,0-16.25-3,25.39,25.39,0,0,0-7.83.15,45.29,45.29,0,0,0-7.44,2.36S673,194.11,673,194.1Z" style="fill: rgb(38, 50, 56); transform-origin: 688.815px 192.878px;" id="eldqgzs1dprfo" class="animable"></path><g id="elve6r9pkiti"><path d="M639.12,242.76c-7.49,2.66-13,5.2-19.53,5.06-8.18-.19-26.35-11.12-40.65-29.56-.66-.84-1.23-1.63-1.7-2.37Z" style="opacity: 0.1; transform-origin: 608.18px 231.858px;" class="animable"></path></g><path d="M611.13,216.29l-21.64,14.09s-10.79-9.81-14-14.47c-4.87-7.07-5.93-11.25,5.74-9.78C593.49,207.67,611.13,216.29,611.13,216.29Z" style="fill: rgb(0, 255, 136); transform-origin: 591.58px 218.108px;" id="elm6yfvv9ya8c" class="animable"></path><path d="M590.9,215.84a1.31,1.31,0,1,1-1.3-1.3A1.31,1.31,0,0,1,590.9,215.84Zm15.8-1.3a1.31,1.31,0,0,0,0,2.61,1.31,1.31,0,1,0,0-2.61Z" style="fill: rgb(255, 255, 255); transform-origin: 598.202px 215.847px;" id="elm3yduf8d5h" class="animable"></path><path d="M592.19,223.86c1.63-.93,3.27-1.85,4.88-2.82s3.12-1.89,4.65-2.89c.81-.53,1.61-1.09,2.41-1.65.29-.2,1.65-1.2,1.8-1.35s0-.07,0-.05c-3.19,1.86-6.43,3.65-9.61,5.54-1.56.94-3.11,1.9-4.66,2.86a43.11,43.11,0,0,0-4.44,2.87c-.08.07,0,.18.11.15A46.41,46.41,0,0,0,592.19,223.86Z" style="fill: rgb(38, 50, 56); transform-origin: 596.592px 220.793px;" id="elu60f7zctl4l" class="animable"></path><g id="elm3qnxa03abb"><path d="M597.85,224.94l-8.35,5.44s-10.8-9.81-14-14.47c-4.88-7.08-5.93-11.25,5.74-9.79,1.23.15,2.52.38,3.83.67C588.9,212,593.94,219.27,597.85,224.94Z" style="opacity: 0.1; transform-origin: 584.943px 218.105px;" class="animable"></path></g><path d="M524.25,204.64C525,207,543.46,266,543.46,266l29.85-13.9a13.75,13.75,0,0,0,11.08-5.3c4.92-6.29,4.12-28.54,4.06-30.2-.26-6.65-4.82-13.16-13.77-12.92-13.07.36-25.72,2.7-35.39,2.9C535.53,206.66,524.25,204.64,524.25,204.64Z" style="fill: rgb(0, 255, 136); transform-origin: 556.392px 234.837px;" id="el1yz5swtatrj" class="animable"></path><path d="M539.59,215.84a1.31,1.31,0,1,1-2.61,0,1.31,1.31,0,0,1,2.61,0Zm15.8-1.3a1.31,1.31,0,1,0,1.3,1.3A1.31,1.31,0,0,0,555.39,214.54Zm17.1,0a1.31,1.31,0,0,0,0,2.61,1.31,1.31,0,1,0,0-2.61Zm15.87.91a1,1,0,0,0-.07.39,1.21,1.21,0,0,0,.15.6C588.43,216.11,588.4,215.78,588.36,215.45Zm-50.08,25.87a1.31,1.31,0,1,0,1.31,1.31A1.31,1.31,0,0,0,538.28,241.32Zm17.11,0a1.31,1.31,0,1,0,0,2.61,1.31,1.31,0,0,0,0-2.61Zm17.1,0a1.31,1.31,0,1,0,1.31,1.31A1.31,1.31,0,0,0,572.49,241.32Zm-25.65-13.15a1.31,1.31,0,1,0,1.3,1.3A1.31,1.31,0,0,0,546.84,228.17Zm17.1,0a1.31,1.31,0,0,0,0,2.61,1.31,1.31,0,1,0,0-2.61Zm17.1,0a1.31,1.31,0,1,0,1.31,1.3A1.3,1.3,0,0,0,581,228.17ZM546.84,255a1.31,1.31,0,1,0,0,2.61,1.31,1.31,0,0,0,0-2.61Zm17.1,0a1.31,1.31,0,0,0-1.3,1.31,1.35,1.35,0,0,0,.21.72l2.34-1.09A1.31,1.31,0,0,0,563.94,255Z" style="fill: rgb(255, 255, 255); transform-origin: 562.705px 236.075px;" id="el2lmuki4g6m8" class="animable"></path><path d="M577.93,206.37c-.44,1.15.07,10.78,4.78,13.57,1.53.91,6.86-7.25,6.86-7.25l.53-.51,7.42-7.17-7.17-15.16S578.54,204.76,577.93,206.37Z" style="fill: rgb(119, 68, 66); transform-origin: 587.662px 204.93px;" id="el4kd63s7mkl9" class="animable"></path><path d="M597.52,205l-5.37,5.19c-5.78-.89-10.14-4.71-12.2-6.85,3.53-4.84,10.4-13.51,10.4-13.51Z" style="fill: rgb(38, 50, 56); transform-origin: 588.735px 200.01px;" id="eltptfyj58i2c" class="animable"></path><path d="M577.27,181.13c-7.11,16.67,2.07,22.81,5.67,24.34,3.26,1.38,14.55,5.7,23.35-10.15s3.29-24.42-4-28S584.38,164.46,577.27,181.13Z" style="fill: rgb(119, 68, 66); transform-origin: 592.729px 186.316px;" id="elai0iarfb8si" class="animable"></path><path d="M581.6,178.2c.41.11.81.15,1.23.22a2,2,0,0,0,1.3,0,.63.63,0,0,0,.29-.73,1.57,1.57,0,0,0-1.32-.93,2.39,2.39,0,0,0-1.68.21A.69.69,0,0,0,581.6,178.2Z" style="fill: rgb(38, 50, 56); transform-origin: 582.782px 177.611px;" id="el82zoh42ok0u" class="animable"></path><path d="M593,183.06c-.37-.2-.68-.46-1-.7s-.73-.44-.92-.91a.64.64,0,0,1,.3-.73,1.61,1.61,0,0,1,1.6.24,2.37,2.37,0,0,1,1.05,1.32A.69.69,0,0,1,593,183.06Z" style="fill: rgb(38, 50, 56); transform-origin: 592.557px 181.887px;" id="elrp4eny65nya" class="animable"></path><path d="M589,186.29s.06.09,0,.14c-.57,1.09-1,2.44-.22,3.3,0,0,0,.08,0,.05C587.68,189,588.32,187.23,589,186.29Z" style="fill: rgb(38, 50, 56); transform-origin: 588.606px 188.038px;" id="elgplcvhs0fge" class="animable"></path><path d="M590.59,185.61c1.86.72.27,4.38-1.45,3.7S589,185,590.59,185.61Z" style="fill: rgb(38, 50, 56); transform-origin: 589.909px 187.468px;" id="elv4qf3foyds" class="animable"></path><path d="M591.23,186.11c.23.35.38.85.75,1a1.45,1.45,0,0,0,1.38-.24s.06,0,0,.07c-.29.71-.88,1.31-1.67,1.09a1.49,1.49,0,0,1-.82-1.82C590.94,186.12,591.14,186,591.23,186.11Z" style="fill: rgb(38, 50, 56); transform-origin: 592.093px 187.071px;" id="elno37q53n2s8" class="animable"></path><path d="M582.24,183.15c0-.05-.11,0-.13.06-.45,1.15-1.16,2.39-2.34,2.33,0,0-.06.06,0,.07C581.08,186,582,184.31,582.24,183.15Z" style="fill: rgb(38, 50, 56); transform-origin: 580.992px 184.398px;" id="el3ta8cweh9zq" class="animable"></path><path d="M581.73,181.53c-1.77-.92-3.47,2.69-1.83,3.53S583.21,182.3,581.73,181.53Z" style="fill: rgb(38, 50, 56); transform-origin: 580.769px 183.284px;" id="elr8an0k884s" class="animable"></path><path d="M580.87,181.41c-.38.06-.82.27-1.17.13s-.52-.68-.59-1.18c0-.05-.05,0-.07,0-.35.68-.46,1.5.14,2s1.27,0,1.75-.59C581,181.63,581,181.39,580.87,181.41Z" style="fill: rgb(38, 50, 56); transform-origin: 579.865px 181.451px;" id="elrpfh72l6e8d" class="animable"></path><path d="M585.17,195.2c-.37.18-.78.47-1.21.36a3.16,3.16,0,0,1-1.16-.71,0,0,0,0,0-.07,0A1.66,1.66,0,0,0,584,196a1.33,1.33,0,0,0,1.27-.73C585.31,195.23,585.23,195.18,585.17,195.2Z" style="fill: rgb(38, 50, 56); transform-origin: 584.005px 195.426px;" id="el7iffqd5l67b" class="animable"></path><path d="M582,189.15s-.92,1.62-1.24,2.42c0,.08.15.19.42.32,0,0,0,0,0,0a4.13,4.13,0,0,0,4.3,0c.09,0,0-.18-.08-.16a6.21,6.21,0,0,1-3.9-.39c0-.24,1.66-2.72,1.54-2.78a7.56,7.56,0,0,0-2-.31c1.82-3.43,4.17-6.53,5.92-10a.12.12,0,0,0-.19-.14A62.51,62.51,0,0,0,580,188.67C579.75,189.1,581.65,189.16,582,189.15Z" style="fill: rgb(38, 50, 56); transform-origin: 583.475px 185.286px;" id="eliciyllams7b" class="animable"></path><path d="M581.52,191.29a5.15,5.15,0,0,0,1,2.35,2.33,2.33,0,0,0,1.18.73c1,.24,1.46-.56,1.67-1.34a5.54,5.54,0,0,0,.17-1.27A6.47,6.47,0,0,1,581.52,191.29Z" style="fill: rgb(38, 50, 56); transform-origin: 583.53px 192.852px;" id="elw8j0uanx76f" class="animable"></path><path d="M582.56,193.64a2.33,2.33,0,0,0,1.18.73c1,.24,1.46-.56,1.67-1.34A2.35,2.35,0,0,0,582.56,193.64Z" style="fill: rgb(255, 156, 189); transform-origin: 583.985px 193.601px;" id="elmm56evd4y7" class="animable"></path><path d="M603.81,196.67c-4.12-1.86-.09-15.19.42-16.82-.37,1-2.39,6.35-2.88,6.4a4.38,4.38,0,0,1-1.21-.78h0a12.7,12.7,0,0,0,.62-2c.09-.31-.37.59-1,1.66l-.69-.52a16.37,16.37,0,0,0,1.25-4.19c.08-.54-1,1.65-2.25,3.41a55,55,0,0,0-10.15-6.39c-1-.47-1.93-.82-2.74-1.11.63-1.56,1.49-3.15,1.23-2.84a16.69,16.69,0,0,0-1.84,2.63l-1.22-.39c.79-2.25,3.28-5.34,2.7-5a17,17,0,0,0-4.34,4.56c-1.63-.32-2.16-.2-2-.6a19.78,19.78,0,0,1,10.25-9.11c7.22-2.78,18.15.23,20.92,10.21,0,0,3.55,5.13,2.23,10.53S606.19,197.74,603.81,196.67Z" style="fill: rgb(38, 50, 56); transform-origin: 596.543px 180.695px;" id="elay1ezggbcv5" class="animable"></path><path d="M602.38,195.87s5.76-3.81,7.63-1.55-3.91,8.78-7.13,8.72a3.06,3.06,0,0,1-3.21-3Z" style="fill: rgb(119, 68, 66); transform-origin: 605.022px 198.324px;" id="elkj98w3zvot" class="animable"></path><path d="M608.3,196.15c.05,0,0,.08,0,.08-2.28,0-4,1.43-5.51,3a1.69,1.69,0,0,1,2.53.5s0,.11-.1.08a1.88,1.88,0,0,0-2.17-.15,9.75,9.75,0,0,0-1.54,1.19c-.16.14-.44-.08-.29-.25l0,0C602.18,198.07,605.51,195.34,608.3,196.15Z" style="fill: rgb(38, 50, 56); transform-origin: 604.75px 198.45px;" id="elibwhvdjmn3o" class="animable"></path><path d="M562,225.92c5.1,8.15,25.19,39.27,39.61,44a170.46,170.46,0,0,0,39.71,7.29c6.32.28,10.46-29.18,4.77-29.84-10.83-1.24-33.53-1.57-37.56-2.61-3.2-.83-23.93-18.59-37.17-27.68C559.46,208.92,553.45,212.21,562,225.92Z" style="fill: rgb(119, 68, 66); transform-origin: 603.383px 244.941px;" id="el20szufn429tj" class="animable"></path><path d="M646.12,247.4s11.91-1.24,19.73-1.69c4.37-.26,11.89,0,15.19,1.26,4.92,1.92,24.29,13.09,21.68,17.85-2.36,4.3-17.78-7.41-17.78-7.41s16.61,10.44,12.81,15.1-19.46-10.89-19.46-10.89,16.83,11.11,12.15,15.3c-3.53,3.16-18.51-10.12-18.51-10.12s14.39,9.65,10.9,13.06c-3.86,3.77-18.46-7.62-18.46-7.62-10.33,7.17-18.19,6.36-23.71,5.12C639.33,277.06,646.12,247.4,646.12,247.4Z" style="fill: rgb(119, 68, 66); transform-origin: 671.724px 263.122px;" id="elsbg0elm9mml" class="animable"></path><path d="M679.43,253.43c2,1.16,4,2.32,5.91,3.64s3.72,2.73,5.48,4.23a38.91,38.91,0,0,1,6.26,6.48c-3.56-4-10.24-8.87-12.13-10.2s-3.69-2.75-5.57-4.08C679.33,253.47,679.38,253.41,679.43,253.43Z" style="fill: rgb(38, 50, 56); transform-origin: 688.22px 260.603px;" id="elvr8g4n5v9b" class="animable"></path><path d="M674.51,260.15c2.48,1.59,5,3.07,7.42,4.77s4.53,3.5,6.81,5.35c.18.14,0,.19-.14.05-2.35-1.75-4.66-3.2-7-4.92s-4.68-3.55-7.11-5.19C674.42,260.19,674.47,260.13,674.51,260.15Z" style="fill: rgb(38, 50, 56); transform-origin: 681.635px 265.275px;" id="el9f1sojxn45l" class="animable"></path><path d="M669.24,265.16A65.35,65.35,0,0,1,680,273.32c.17.15,0,.19-.19.05-3.53-2.78-6.29-5-10.68-8.07C669.1,265.25,669.16,265.12,669.24,265.16Z" style="fill: rgb(38, 50, 56); transform-origin: 674.596px 269.304px;" id="ell4ez5vhtyg8" class="animable"></path><path d="M571.66,247.73l11.47-23.13s-11-9.57-16-12.22c-7.59-4-11.86-4.58-9,6.84C561,231.22,571.66,247.73,571.66,247.73Z" style="fill: rgb(0, 255, 136); transform-origin: 570.183px 228.75px;" id="elu4aijjg9wt" class="animable"></path><path d="M573.47,216.7a1.27,1.27,0,0,1-1,.45,1.31,1.31,0,0,1-1.3-1.31,1.27,1.27,0,0,1,.2-.69C572.07,215.64,572.77,216.16,573.47,216.7Zm-1,24.62a1.31,1.31,0,1,0,1.31,1.31A1.31,1.31,0,0,0,572.49,241.32Zm-8.55-13.15a1.31,1.31,0,0,0,0,2.61,1.31,1.31,0,1,0,0-2.61Zm17.1,0a1.3,1.3,0,0,0-1.3,1.3,1.33,1.33,0,0,0,.47,1l1.13-2.27A1,1,0,0,0,581,228.17Z" style="fill: rgb(255, 255, 255); transform-origin: 572.022px 229.545px;" id="elat0hubud67" class="animable"></path><path d="M571.83,215.52c1.84,1.59,5.41,3.73,11.14,8.93,0,0-.78,1.89-.91,2.31,0,.12.07.19.13.08.23-.38,1.48-2.47,1.48-2.54s-1.86-1.69-2.72-2.48a36.55,36.55,0,0,0-2.86-2.39l-.4-.3c-.58-.73-1.09-1.5-1.74-2.17a14.54,14.54,0,0,0-2.17-1.82s-.1,0-.06.09c.62.72,1.24,1.45,1.9,2.14.3.32.61.62.93.92a34.68,34.68,0,0,0-4.63-2.88C571.85,215.37,571.77,215.46,571.83,215.52Z" style="fill: rgb(38, 50, 56); transform-origin: 577.739px 221.017px;" id="elt86a9czdrs" class="animable"></path><path d="M576.32,227.23c-.85,1.68-1.69,3.35-2.49,5.05s-1.55,3.31-2.26,5c-.38.9-.74,1.8-1.09,2.71-.12.33-.71,1.92-.75,2.12,0,0,0,.06.06,0,1.62-3.33,3.32-6.61,4.91-9.95.78-1.65,1.53-3.31,2.29-5a43.28,43.28,0,0,0,2.1-4.85c0-.1-.12-.15-.17-.06A45.42,45.42,0,0,0,576.32,227.23Z" style="fill: rgb(38, 50, 56); transform-origin: 574.41px 232.17px;" id="elzndiufptf5" class="animable"></path><path d="M573.8,243.41q-1,2.4-2.11,4.75l-.21-.32c-5.14-8.12-9.85-16.67-12.63-25.91a188.93,188.93,0,0,0,9.47,19.4c1.17,2.1,2.32,4.21,3.52,6.28l-.37,0q1.13-2.12,2.33-4.22Z" style="fill: rgb(38, 50, 56); transform-origin: 566.325px 235.045px;" id="el7kuc101ji5k" class="animable"></path><path d="M558.85,225.1a50.73,50.73,0,0,1,3,4.37,8.25,8.25,0,0,1-3-4.37Z" style="fill: rgb(38, 50, 56); transform-origin: 560.35px 227.285px;" id="el3wwc4bylxsp" class="animable"></path></g><g id="freepik--character-3--inject-86" class="animable" style="transform-origin: 367.833px 369.02px;"><path d="M215.71,395.12s-40.33-8.26-40.36-8.28c-7.68-5.72-14.52-10.59-18.29-12.78a.15.15,0,0,0-.07,0,6.61,6.61,0,0,0-2.79-1.2h-.08c-3.25,1.13-50.7,61.22-51.65,63.87s6.54,5.57,10.24,4.71,32.16-15.76,32.16-15.76l40.59,7.87Z" style="fill: rgb(201, 95, 80); transform-origin: 159.049px 407.227px;" id="elhka2aa8ad8r" class="animable"></path><path d="M155.91,427.8l-11-2.14s-28.44,14.88-32.16,15.76-11.2-2.05-10.24-4.71,48.4-62.74,51.64-63.88a.14.14,0,0,1,.09,0A6.67,6.67,0,0,1,157,374l.06,0c3.78,2.19,10.61,7.06,18.29,12.78l6.32,1.31Z" style="fill: rgb(235, 235, 235); transform-origin: 142.048px 407.201px;" id="ely9a26awx65" class="animable"></path><path d="M102.47,436.71c1-2.66,48.39-62.74,51.65-63.87,1.23-.46,10.39,6,21.23,14l.34.26-30.18,39.1-.64-.54s-28.45,14.88-32.17,15.75S101.51,439.36,102.47,436.71Z" style="fill: rgb(0, 255, 136); transform-origin: 139.038px 407.192px;" id="elcv8orfv67dt" class="animable"></path><path d="M105.34,437.87c8.24-9.93,40.56-50.76,48-61.21.06-.08,0-.13-.06-.05-8.39,9.67-40.38,50.76-48.07,61.13C105,438,105.16,438.08,105.34,437.87Z" style="fill: rgb(38, 50, 56); transform-origin: 129.238px 407.28px;" id="elmfbabe0eolj" class="animable"></path><path d="M142.18,428.83c3.89-3.4,7.13-8.76,6.69-14,0-.21-.31-.18-.37,0a71.2,71.2,0,0,1-6.81,13.64A.33.33,0,0,0,142.18,428.83Z" style="fill: rgb(38, 50, 56); transform-origin: 145.296px 421.78px;" id="eljchsquzoabf" class="animable"></path><path d="M138.17,430.34c3.89-3.4,7.13-8.76,6.7-14,0-.2-.31-.17-.37,0a71.25,71.25,0,0,1-6.82,13.64A.33.33,0,0,0,138.17,430.34Z" style="fill: rgb(38, 50, 56); transform-origin: 141.29px 423.294px;" id="elssz9jwoztr" class="animable"></path><path d="M134.17,431.84c3.89-3.39,7.13-8.75,6.69-14,0-.2-.31-.18-.37,0a71.29,71.29,0,0,1-6.81,13.65A.32.32,0,0,0,134.17,431.84Z" style="fill: rgb(38, 50, 56); transform-origin: 137.284px 424.797px;" id="elbt6i46u9z7v" class="animable"></path><path d="M177.91,380.94l-16.67,50.88s110.45,35.06,142.49,32.37c28.32-2.38,136.3-65.84,136.3-65.84l-16.79-42S331.84,399,297,412.07C285.92,416.2,177.91,380.94,177.91,380.94Z" style="fill: rgb(38, 50, 56); transform-origin: 300.635px 410.344px;" id="elkbmm95ah0k" class="animable"></path><path d="M180.6,381.82c-1.27.83-2.55,1.67-3.81,2.54l.57-1.75,1.88-1.23C179.62,381.49,180.07,381.64,180.6,381.82Zm24.93,20.87c-.3-3.43-1.87-7-4.84-8.9-7.69-5-14.3,4.1-16.77,10.33-2.7,6.83-4.27,19.12-13.63,19.87a8.86,8.86,0,0,1-5.91-1.75l-.31.94a9.88,9.88,0,0,0,3.61,1.57c8.61,1.83,13-7.6,15.11-14.23,1.34-4.2,2.47-8.35,5.07-12s6.94-6.62,11.48-4.55c4,1.84,5.72,6.76,5.44,10.9-.37,5.42-4.19,10-7.69,13.86-3.86,4.24-7.75,8.43-11.4,12.86-1.68,2-3.33,4.09-4.93,6.19l.71.21c2.82-3.8,6-7.41,9.09-10.95,3.54-4,7.52-7.79,10.72-12.11C203.89,411.39,205.93,407.2,205.53,402.69ZM221.68,422a10.44,10.44,0,0,0-11.38,1.38,11.15,11.15,0,0,0-3.72,10.7c.72,4.35,3,8.23,4.41,12.36v0l.86.24c-.53-1.67-1.21-3.29-1.87-4.87-1.77-4.19-3.91-9-2.31-13.54A10,10,0,0,1,220,422.06a10.4,10.4,0,0,1,5.94,5c1.52,2.92,1.22,6.34.63,9.46-.8,4.24-2.11,8.85-2.69,13.4l.63.16c0-.16,0-.31.05-.46.75-5.68,3-11.21,3.2-17A11.14,11.14,0,0,0,221.68,422Zm22.13-.72c-2.91-3.61-6.73-6.32-10.58-8.85-4-2.66-8.25-5.17-11.76-8.55a24.77,24.77,0,0,1-6.8-11.35l-.75-.23a28.29,28.29,0,0,0,9.54,14.16c7.65,6.17,17.2,10,22.32,18.83a47.35,47.35,0,0,1,5.14,15.47c.92,5.2,1.35,10.74,0,15.88l.72.17c1.87-6.94.51-15-1.21-21.62A36.78,36.78,0,0,0,243.81,421.25ZM289,425.09c-9.8-2.34-15,10.21-24.47,9a10.11,10.11,0,0,1-8.69-11.8c.87-5,5.19-7.91,9.89-8.8,4.42-.84,9-.46,13.45-.52a36.83,36.83,0,0,0,8.92-1.13c-.45-.06-.91-.14-1.38-.22-.79.18-1.58.33-2.38.44-4.53.63-9.14.19-13.71.36-3.8.14-7.88.64-11,2.94A10.89,10.89,0,0,0,255.29,426a10.6,10.6,0,0,0,8,8.45c9.67,2.34,14.91-9.83,24.38-9a5.9,5.9,0,0,1,5.43,4c.81,2.79-.55,5.77-2.13,8-2.87,4.07-6.95,7.11-10.8,10.18-4.52,3.61-8.92,7.71-11.13,12.82l.49.09c3.08-7.21,10.46-11.72,16.31-16.82,3.24-2.83,6.78-6.31,7.8-10.64C294.53,429.47,292.76,426,289,425.09Zm31.9-7c-3.43-2-7.57-1-10.61,1.23-3.69,2.72-5.41,6.91-5.95,11.35-.65,5.31.15,10.68.32,16a60.78,60.78,0,0,1-1.27,16.15c-.11.47-.23.93-.37,1.39l.56,0c2.27-8.07,1.67-16.76,1.19-25.05-.32-5.53-.46-11.87,3-16.55,2.85-3.86,8.32-6.61,12.89-4,4,2.29,5,7.45,4.86,11.7-.15,5.53-2.05,10.93-3.38,16.24a49.63,49.63,0,0,0-1.74,13.19l.51-.19c-.14-6.12,1.65-12.48,3.18-18.41C325.88,434.26,328.72,422.59,320.93,418.13Zm15,3.12a13.61,13.61,0,0,0-.79,12.11c1.72,4,5.28,6.62,8.58,9.19a37.08,37.08,0,0,1,5.29,4.77l.56-.26c-5.53-6.42-15.57-9.82-14.91-19.83a12,12,0,0,1,9.09-11,11.82,11.82,0,0,1,12.86,5.27c3.77,5.93,3.38,13.18,4.32,20l.47-.23c-1-7.33-.43-15.48-5.29-21.45C350.87,413.35,340.23,414,336,421.25Zm38.22-10.16c-8.88-5.25-19.16-6.35-29.26-5.33-5.78.58-11.67,1.46-17.44.31a20.18,20.18,0,0,1-7.74-3.21l-.67.28A21.92,21.92,0,0,0,329.78,407c5.76.65,11.52-.4,17.25-.87a49.94,49.94,0,0,1,16,1.09c9.89,2.41,19,8.42,23.39,17.82a28.67,28.67,0,0,1,1.09,2.67l.51-.26A31.77,31.77,0,0,0,374.17,411.09Zm-4.38-27.57c-1.88,4.78-4.8,10.64-10.48,11.54-4.11.65-7.12-2.2-8.34-5.78l-.59.26a10.62,10.62,0,0,0,.4,1.07,8.16,8.16,0,0,0,7.49,5.2c4.28-.07,7.76-3.48,9.8-7,1.62-2.78,2.56-5.95,3.81-8.93l-.81.37C370.62,381.36,370.21,382.45,369.79,383.52Zm45.06,4.19a11.23,11.23,0,0,0-9.1-2.77c-3.94.65-6.29,3.9-7.89,7.3-2,4.18-3.29,8.9-8,10.77-1.85.74-4.25,1.06-5.89-.32-2.37-2-1.45-5.68-.5-8.16,1.74-4.49,5.15-8.27,6.29-13,.72-3,.67-6.66-1.25-9.18l-.61.27c.11.14.22.29.32.44,2.8,4.19.84,9.72-1.35,13.67s-5.61,8.51-5,13.27c.47,3.44,3.59,4.79,6.73,4.07,3.94-.92,6.27-3.87,7.88-7.37,1.84-4,3.4-9.26,8-10.83a10.37,10.37,0,0,1,10.79,3.29,9,9,0,0,1,.51,10.36c-1.73,3-4.58,5.28-7.28,7.38-4.93,3.85-11.34,8-12.55,14.6a11,11,0,0,0-.17,1.71l.74-.41a11.08,11.08,0,0,1,1.54-5.1c3.52-6.09,10.4-9.28,15.27-14.11a14.06,14.06,0,0,0,4.33-7.4A9.08,9.08,0,0,0,414.85,387.71Zm18.07,13c.07.55.17,1.09.27,1.63l.57-.32c-.57-3.06-.69-6.13,1.13-8.74a7.76,7.76,0,0,1,2.25-2.14l-.25-.62C433.35,392.66,432.39,396.71,432.92,400.69ZM428,368.19c-.69.39-1.39.76-2.1,1.1-3.27,1.55-8.49,2.22-10.87-1.31-3.1-4.59,4.07-8.88,7.13-11l.63-.43-4.25,2a15,15,0,0,0-4.05,4.23,5.14,5.14,0,0,0,1.49,7.1,9.66,9.66,0,0,0,8.58.76,28,28,0,0,0,3.71-1.78Z" style="fill: rgb(55, 71, 79); transform-origin: 300.58px 410.38px;" id="el2svumn91ns" class="animable"></path><path d="M436.74,390.1,313.29,405.55C353.9,388.71,422,356.93,423.23,356.36h0Z" style="fill: rgb(55, 71, 79); transform-origin: 375.015px 380.955px;" id="el8clv5ej5r0e" class="animable"></path><path d="M421.68,366.22,394,380.4l-27.82,14c-18.57,9.26-63.3,28.54-68.69,29.36-7,1.07-95.22-25.9-104.89-28.93-.57-.18-.06-.49-.06-.49s99.87,29.55,104.84,28.08c6.05-1.78,49.75-19.75,68.4-28.83Z" style="fill: rgb(55, 71, 79); transform-origin: 307.005px 395.006px;" id="elqolyo1b1ha" class="animable"></path><path d="M172.71,432c2.69-7.65,2-5.41,4.63-13.09,1.27-3.75,9.61-28.44,10.16-32.16,0-.08-.12-.13-.16-.06-1.76,3.33-9.65,28.16-10.85,31.94-2.44,7.73-1.65,5.54-4,13.29A.12.12,0,0,0,172.71,432Z" style="fill: rgb(55, 71, 79); transform-origin: 179.995px 409.356px;" id="elaj6p0ycllmw" class="animable"></path><path d="M212.4,347.24S172.07,339,172.05,339c-7.69-5.71-14.53-10.58-18.3-12.77l-.06,0a6.75,6.75,0,0,0-2.8-1.19s-.06,0-.08,0c-3.25,1.13-50.7,61.22-51.65,63.87s6.54,5.57,10.24,4.7,32.16-15.75,32.16-15.75l40.59,7.86Z" style="fill: rgb(201, 95, 80); transform-origin: 155.739px 359.403px;" id="elnqgd977jplb" class="animable"></path><path d="M152.6,379.92l-11-2.14s-28.44,14.88-32.16,15.76-11.2-2.06-10.24-4.71,48.4-62.74,51.65-63.88h.08a6.75,6.75,0,0,1,2.8,1.19s.05,0,.06,0c3.78,2.2,10.61,7.07,18.3,12.79l6.31,1.31Z" style="fill: rgb(235, 235, 235); transform-origin: 138.758px 359.325px;" id="eldw63t9g2yw" class="animable"></path><path d="M99.16,388.83c1-2.66,48.39-62.74,51.65-63.88,1.23-.45,10.39,5.95,21.23,14l.34.25-30.17,39.11-.65-.54s-28.45,14.88-32.16,15.75S98.2,391.48,99.16,388.83Z" style="fill: rgb(0, 255, 136); transform-origin: 135.728px 359.302px;" id="els121rzrjnqm" class="animable"></path><path d="M102,390c8.24-9.93,40.57-50.77,48-61.21.06-.09,0-.13-.06,0-8.39,9.66-40.38,50.76-48.07,61.13C101.7,390.08,101.85,390.2,102,390Z" style="fill: rgb(38, 50, 56); transform-origin: 125.91px 359.406px;" id="el93j6qrbvg0d" class="animable"></path><path d="M138.87,380.94c3.89-3.39,7.13-8.75,6.69-14,0-.2-.3-.18-.36,0a71.25,71.25,0,0,1-6.82,13.64A.32.32,0,0,0,138.87,380.94Z" style="fill: rgb(38, 50, 56); transform-origin: 141.982px 373.898px;" id="eli4e6mmj2hza" class="animable"></path><path d="M134.87,382.45c3.89-3.4,7.12-8.75,6.69-14,0-.21-.31-.18-.37,0A72.17,72.17,0,0,1,134.38,382,.32.32,0,0,0,134.87,382.45Z" style="fill: rgb(38, 50, 56); transform-origin: 137.945px 375.431px;" id="elap9s9t58v44" class="animable"></path><path d="M130.86,384c3.89-3.4,7.13-8.75,6.69-14,0-.21-.3-.18-.37,0a71,71,0,0,1-6.81,13.65A.32.32,0,0,0,130.86,384Z" style="fill: rgb(38, 50, 56); transform-origin: 133.974px 376.955px;" id="elrpxc3remgoc" class="animable"></path><path d="M438.35,394h0c-.94.16-15.74,2.67-28.66,4.3-9.44,1.21-17.86,1.93-19.16.94-1.47-1.13-7.55-7.07-9.52-9.09,0,0-72.74,17.44-98.64,19.26-26.3,1.85-124.86-21.11-124.86-21.11l16.81-51.5s87,18.08,99.88,17.46c19.89-.95,99.3-11.23,99.3-11.23s26.65-10.85,41.92-6.51Z" style="fill: rgb(38, 50, 56); transform-origin: 297.93px 372.506px;" id="elz92r4vmitdm" class="animable"></path><path d="M204.49,398.49l-1-.18a8.82,8.82,0,0,0-4.2-4.34c-3.22-1.47-6.35-.39-8.81,1.65l-.93-.19c3.05-2.89,6.91-4.33,11.09-1.64A10.25,10.25,0,0,1,204.49,398.49ZM177,337.41l-1,.71c-.94.7-1.9,1.38-2.87,2.05l-.18.56c1.49-1.06,3-2.12,4.4-3.24Zm28.08,11.18a9.89,9.89,0,0,0-8.4-6.46c-10-1.13-15.8,8.29-18.83,16.39-2,5.26-3.43,10.85-6.64,15.53-2.53,3.68-6.81,7.08-11.4,7.06l-.18.55a12.66,12.66,0,0,0,7.49-2.51c4.17-3,6.59-7.54,8.43-12.2,3.54-9,6.56-22.69,18.21-24,5-.54,9.7,2,10.8,7.11s-1.19,10.23-4.1,14.23c-5.92,8.13-15.13,13-23.31,18.43a66.65,66.65,0,0,0-9.85,7.85l1.26.28c4.33-4.1,9.46-7.42,14.43-10.61,7.84-5,16.3-10.62,20.63-19.2C205.52,357.32,206.54,352.65,205.1,348.59Zm45.41,19.58c-3.8-2.94-8.58-3.66-13.19-4.35-5.19-.77-10.47-1.74-14.23-5.73a17.45,17.45,0,0,1-4.62-12.45l-.52-.1a17.35,17.35,0,0,0,7,14.95c8.23,5.94,20.18,2.12,27.37,10.15a17.23,17.23,0,0,1,4.29,13.58c-.67,4.89-4.46,10.57-10.1,9.34-4.79-1-7.55-6.39-9.26-10.51-1.54-3.73-3.16-7.88-6.41-10.49-7.11-5.72-15,1.53-17,8.61s.27,14.36,4.57,20.05l.8.15a24.18,24.18,0,0,1-5.18-12c-.66-5.13.34-10.39,3.78-14.39,3.3-3.84,8.56-5.25,12.72-1.83,6.6,5.43,5.94,17.2,14.62,20.65,3.74,1.5,7.52-.28,9.73-3.44A15.16,15.16,0,0,0,257,378.67,17.93,17.93,0,0,0,250.51,368.17Zm25.5-9.62a23.87,23.87,0,0,0,2.6-4.52l-.73.05c-1.91,4.11-5.05,8.41-9.7,9.44-6.33,1.4-8.55-5.46-9.06-10.35,0-.13,0-.27,0-.4l-.63-.09a31.31,31.31,0,0,0,.49,3.46c.75,3.71,2.82,7.64,7,8.11S273.72,361.58,276,358.55Zm27.83,30.12c-2.58-3.5-7.08-3.89-11-2.61-4.64,1.54-8,5.14-11.66,8.15S273,399.61,268.1,398a6.54,6.54,0,0,1-4.55-4.55c-.7-2.87.89-5.59,2.82-7.58,3.79-3.93,9.31-6,14.17-8.24S290.65,373,295,369.51c5.24-4.28,10-11.13,9.4-18l-.6.06a18.26,18.26,0,0,1-3.36,11.24c-3.06,4.55-7.47,7.88-12.23,10.5-5,2.75-10.35,4.82-15.41,7.46-3.88,2-8.35,4.85-9.67,9.32a6.79,6.79,0,0,0,4.12,8.27,12.08,12.08,0,0,0,10.52-.94c4.41-2.47,7.59-6.6,11.93-9.17,4.59-2.73,11.43-3.71,14.37,1.86,2.76,5.24-.14,11-4.08,14.69a26.24,26.24,0,0,1-4,3.06l1.39-.21a21.22,21.22,0,0,0,6.76-7.13C306.08,396.85,306.39,392.13,303.84,388.67Zm34.06-22.79c-3.36-1.48-7.44-1-10.88-.07-4.09,1.05-9.09,2.62-13.12.53-5.32-2.76-3.28-9.5.3-12.76a22.61,22.61,0,0,1,7.62-4.11l-2.2.26A28,28,0,0,0,317,351c-3.54,1.9-6.72,5.28-6.95,9.49a7,7,0,0,0,6,7.21c4.07.8,8-.57,11.94-1.48,3.7-.85,9.18-1.41,12,1.82,4,4.65-1.36,9.8-5.54,11.6s-9.11,1.55-13.46,3.12c-3.78,1.37-6.71,4.22-7.23,8.32a13.18,13.18,0,0,0,3.63,10.55,14.71,14.71,0,0,0,2.41,2l.88-.17a13.19,13.19,0,0,1-5.46-6.21c-1.94-4.71-.91-10.18,3.67-12.88,4.15-2.44,9.15-2.2,13.66-3.44,3.59-1,7.59-3.38,9-7A6.3,6.3,0,0,0,337.9,365.88Zm16.73-7.05a11.06,11.06,0,0,0,9-3.8c2.66-3,3.2-7.19,3.27-11.11l-.61.08a22.74,22.74,0,0,1-1.19,7.3,10.6,10.6,0,0,1-9.87,6.94c-6.35-.21-6.08-7.59-5.18-12.2l-.67.08a24.54,24.54,0,0,0-.51,5.06C348.87,354.87,350.65,358.4,354.63,358.83Zm32.86,12.4c-3.14-2.62-7.53-1.65-10.59.58-3.86,2.81-5.43,7.44-7.11,11.71-1.88,4.78-4.8,10.64-10.48,11.54-4.66.74-7.9-3-8.73-7.25-2.09-10.7,9.35-16.45,16.5-21.7,7.59-5.59,14.57-12.72,18.16-21.58a32,32,0,0,0,1.74-5.88l-.64.17a34.85,34.85,0,0,1-4.53,11,52.32,52.32,0,0,1-9.89,11.51c-3.83,3.41-8.11,6.11-12.25,9.11-3.56,2.58-7.16,5.64-8.95,9.77a13.17,13.17,0,0,0,.06,10.36,8.36,8.36,0,0,0,6.24,5.11,6.4,6.4,0,0,0,1.25.09,8.87,8.87,0,0,0,4.57-1.41,15.73,15.73,0,0,0,5.23-5.56c2.68-4.6,3.49-10.26,7-14.41,3.13-3.75,9.9-6.37,13.23-1.38,2.8,4.19.84,9.72-1.35,13.67-1,1.87-2.36,3.9-3.39,6l.53.52c1.83-3.95,4.72-7.45,5.75-11.74C390.63,378.05,390.44,373.69,387.49,371.23Zm27.36,16.48a11.23,11.23,0,0,0-9.1-2.77c-3.94.65-6.29,3.9-7.89,7.3-1.21,2.56-2.17,5.33-3.82,7.52l.79,0a18.15,18.15,0,0,0,1.74-3.05c1.84-4,3.4-9.26,8-10.83a10.37,10.37,0,0,1,10.79,3.29,8.6,8.6,0,0,1,1.44,8.24l.7-.1a10,10,0,0,0,.25-1.11A9.08,9.08,0,0,0,414.85,387.71Zm-8.12-38.39c-.43,4.2-1.16,8.6-3.71,12.1-2.42,3.3-9.07,6.15-10.81.58-.74-2.36-.31-5.2.14-7.57a42.41,42.41,0,0,1,1.93-6.64c1.45-4,3.29-7.75,4.82-11.66l-.72.1c-2.69,6.92-6.46,13.48-7.12,21-.27,3.12-.06,7.3,3.53,8.42,3,.92,6.34-.86,8.23-3.08,5.07-6,4.17-14.65,5.31-21.89a26.66,26.66,0,0,1,1.26-5.05l-.66,0C407.44,339.89,407.2,344.74,406.73,349.32Zm19.14,20c-3.27,1.55-8.49,2.22-10.87-1.31-3.1-4.59,4.07-8.88,7.13-11l1.11-.76-.27-.69c-3.08,2-6.67,4.11-8.51,7.23a5.14,5.14,0,0,0,1.49,7.1,9.66,9.66,0,0,0,8.58.76,26.88,26.88,0,0,0,3.75-1.8l-.27-.67C427.3,368.56,426.6,368.94,425.87,369.29Zm11.06,21.19a8.13,8.13,0,0,0-3.54,4.38l.68-.11a7.53,7.53,0,0,1,.82-1.49,7.94,7.94,0,0,1,2.28-2.16Z" style="fill: rgb(55, 71, 79); transform-origin: 298.39px 371.745px;" id="elhlv26qmvayd" class="animable"></path><path d="M168.5,389c2.8-7.89,2.11-5.59,4.81-13.5,1.33-3.87,10-29.32,10.6-33.15a.09.09,0,0,0-.16-.06c-1.8,3.44-10,29-11.28,32.93-2.55,8-1.73,5.71-4.2,13.7A.12.12,0,0,0,168.5,389Z" style="fill: rgb(55, 71, 79); transform-origin: 176.087px 365.669px;" id="elx9edyfyvqn" class="animable"></path><path d="M390.41,351.12c.86,1.17,1.52,2.51,2.26,3.75.59,1,1.21,2,1.86,3a15,15,0,0,0,4.63,4.69c2.16,1.27,4.7,1.33,7.14,1.39,1.45,0,2.89.08,4.34.14l2.1.1a19.67,19.67,0,0,0,2.54.15c.12,0,.13.19,0,.18a16.5,16.5,0,0,0-1.71.17l-2,.18c-1.19.09-2.38.2-3.58.27a27.09,27.09,0,0,1-6.49,0c-3.9-.71-6.56-3.71-8.4-7-.53-1-1-1.94-1.46-2.93a22.92,22.92,0,0,1-1.56-3.81C390,351.1,390.28,350.94,390.41,351.12Z" style="fill: rgb(55, 71, 79); transform-origin: 402.72px 358.19px;" id="elgd0z6dszz08" class="animable"></path><path d="M393.93,402.36a101.62,101.62,0,0,0-12.87-12.1.18.18,0,0,0-.25.26c4.16,4.15,8.26,8.43,12.63,12.35A.35.35,0,0,0,393.93,402.36Z" style="fill: rgb(55, 71, 79); transform-origin: 387.396px 396.588px;" id="el547csy6ca6" class="animable"></path><path d="M428.84,390.15c.17-.08.09-.4-.1-.32a178.85,178.85,0,0,1-17.07,5.85c-2.67.8-17.76,4.42-18.51-.47-.13-.82.46-1.49,1.54-2.06a19.24,19.24,0,0,1,4.61-1.16c3.18-.69,6.34-1.49,9.46-2.44a88.11,88.11,0,0,0,16.79-6.93.15.15,0,0,0-.13-.28,167,167,0,0,1-23.83,8c-3.93.92-10.26,1.28-9.28,5.39s11.37,3,14.12,2.46A91.68,91.68,0,0,0,428.84,390.15Z" style="fill: rgb(55, 71, 79); transform-origin: 410.576px 390.535px;" id="el9v0d58sqas" class="animable"></path><path d="M392.82,395.48a25,25,0,0,0-3.35.18,7.16,7.16,0,0,0-2.6.55c-.15.08-.08.3.06.34a9.22,9.22,0,0,0,2.78.09c1.05,0,2.1,0,3.15-.08A.54.54,0,0,0,392.82,395.48Z" style="fill: rgb(55, 71, 79); transform-origin: 390.083px 396.091px;" id="elakho7fw7d8m" class="animable"></path><path d="M188.44,350c15.41,1.67,77,12.67,84.55,12.06q22.88-1.87,45.67-4.49t45.5-6c3.79-.56,7.6-1,11.36-1.76a34.51,34.51,0,0,0,10.64-4.28,36.91,36.91,0,0,1,9.89-4A70.31,70.31,0,0,1,406.66,340c1.88-.15,3.76-.24,5.65-.33a.17.17,0,0,1,0,.33c-7.51.63-15.12,1.24-22,4.52-3.32,1.57-6.31,3.81-9.76,5.12s-7.14,1.75-10.75,2.3q-22.79,3.5-45.69,6.21c-15.26,1.82-35,4-50.33,5.31-7.44.64-83.43-12.92-85.37-13.22C188.28,350.17,188.32,350,188.44,350Z" style="fill: rgb(55, 71, 79); transform-origin: 300.384px 351.576px;" id="el67pufvabsz2" class="animable"></path><path d="M174.18,392.32s75.29,16.9,102,17.19" style="fill: rgb(55, 71, 79); transform-origin: 225.18px 400.915px;" id="el7i6k73rfep" class="animable"></path><path d="M174.18,392.32c31.27,6,63.95,13.21,95.53,16.73,2.14.21,4.29.29,6.45.46-17.28-.24-34.36-3.48-51.35-6.39-17-3.18-33.87-6.68-50.63-10.8Z" style="fill: rgb(38, 50, 56); transform-origin: 225.17px 400.915px;" id="eln0ccrbec2z" class="animable"></path><path d="M489.56,323.87c20.35,25.91,35.14,39.9,43.31,41.9,6,1.46,40.06-1,51.15-4,4.66-1.28-1.27-28.92-6.43-29.12s-36.49,2.22-40.56,1.72c-3.79-.46-33-16-40.9-20.09C486.6,309.29,480.65,312.53,489.56,323.87Z" style="fill: rgb(201, 95, 80); transform-origin: 535.444px 339.105px;" id="elrlppsz9200k" class="animable"></path><path d="M604.34,353.74c-1.66,1.14-1.07,2,2.49,2.25s17.87-1.83,18.17,3.22-19.93,7.69-25.83,6.84S584,361.74,584,361.74C587.85,360.44,596.85,356.39,604.34,353.74Z" style="fill: rgb(201, 95, 80); transform-origin: 604.502px 359.974px;" id="el9ms6qa8id0v" class="animable"></path><path d="M577.59,332.62c10.93-3.27,24.34-8,36.85-4.93a6.36,6.36,0,0,1,3.56,2.18c5.63,1.28,6.71,4.32,6.71,4.32,4.88,2.8,5.57,6.06,5.57,6.06s6.59,1.58,6.3,5.72c-.31,4.65-9.51,1.53-15.62,2.9C607,352,588,360.43,584,361.74Z" style="fill: rgb(201, 95, 80); transform-origin: 607.09px 344.218px;" id="eldqtlo6smn7e" class="animable"></path><path d="M604,341.87a64.82,64.82,0,0,1,26.18-1.52.11.11,0,0,0,0-.22,48.8,48.8,0,0,0-26.26,1.56C603.74,341.76,603.77,341.92,604,341.87Z" style="fill: rgb(38, 50, 56); transform-origin: 617.047px 340.45px;" id="elove5je5mw7i" class="animable"></path><path d="M600.84,333.71c4.07-.6,11.23-1.61,23.85.62,0,0,.07-.06,0-.08a43.84,43.84,0,0,0-23.9-.74C600.56,333.57,600.57,333.75,600.84,333.71Z" style="fill: rgb(38, 50, 56); transform-origin: 612.674px 333.264px;" id="eli7c96x6h5ta" class="animable"></path><path d="M599.24,329.29c7-.76,11.45-.36,18.73.61,0,0,.06-.07,0-.08-8.15-2-11.34-1.75-18.8-.77C598.93,329.08,599,329.31,599.24,329.29Z" style="fill: rgb(38, 50, 56); transform-origin: 608.509px 329.104px;" id="elczzdy70be9" class="animable"></path><path d="M529.1,330.1l-9.52,30.95s-22.85-22.42-30.81-35.65c-8.3-13.78-5.65-19.18,13.43-9.7S529.1,330.1,529.1,330.1Z" style="fill: rgb(0, 255, 136); transform-origin: 506.707px 335.992px;" id="el2wuzmvs9mkd" class="animable"></path><path d="M523.23,329.77c-.32.7-4.69,13.39-7.4,23.46,0,0,.06.07.08,0a183,183,0,0,0,7.4-23.45S523.25,329.72,523.23,329.77Z" style="fill: rgb(38, 50, 56); transform-origin: 519.57px 341.506px;" id="el2d7h7wartsv" class="animable"></path><g id="eld9j9hw84hd7"><path d="M513.76,355.16c-7.32-7.57-19.59-20.78-25-29.76-8-13.34-5.81-18.83,11.65-10.56Z" style="opacity: 0.1; transform-origin: 499.039px 333.047px;" class="animable"></path></g><path d="M407.4,334.52c0,.27,26.44,69.26,26.44,69.26.64,0,19.9-8.65,30.93-20.12,15.45-16.06,30.46-36.73,36.67-50.1,4.42-9.53,1.13-25.2-13.26-23.45-20,2.44-49.83,14.53-54.6,16.08C419.28,330.83,407.43,334.08,407.4,334.52Z" style="fill: rgb(0, 255, 136); transform-origin: 455.334px 356.877px;" id="elui5bien1e6j" class="animable"></path><path d="M493.47,330.73c-3.39-.8-6.8-10.75-5.63-16.54.08-.4,10.37-10.32,12.21-12.5.37-.45,10.86,14.83,10.86,14.83a45.34,45.34,0,0,0-8.37,7.25,5.67,5.67,0,0,0-.65,1l-.11.17C500.63,326.84,497.23,331.62,493.47,330.73Z" style="fill: rgb(201, 95, 80); transform-origin: 499.258px 316.26px;" id="el8143csml4l6" class="animable"></path><path d="M510.91,316.52a46.16,46.16,0,0,0-8,6.84c-4.13-2.9-8.88-13.16-2.67-21.56C501.67,303.06,510.91,316.52,510.91,316.52Z" style="fill: rgb(38, 50, 56); transform-origin: 504.08px 312.58px;" id="el1xql4ftgyci" class="animable"></path><path d="M502.15,282.94c-3.52,5.67-5,24.37-1.64,29.5,4.84,7.45,15.12,10.76,22,4.4,6.71-6.16,8.18-30.55,4.23-35.46C521,274.15,507.34,274.56,502.15,282.94Z" style="fill: rgb(201, 95, 80); transform-origin: 513.764px 298.246px;" id="el1lavlyde3ibh" class="animable"></path><path d="M517.48,299.3c0-.05-.1.05-.1.1-.07,1.25-.36,2.67-1.52,3,0,0,0,.07,0,.07C517.26,302.38,517.62,300.49,517.48,299.3Z" style="fill: rgb(38, 50, 56); transform-origin: 516.684px 300.878px;" id="el7dff0uwjl08" class="animable"></path><path d="M516.48,297.9c-2-.32-2.49,3.68-.64,4S518.15,298.17,516.48,297.9Z" style="fill: rgb(38, 50, 56); transform-origin: 516.099px 299.9px;" id="elisfzbmqbb" class="animable"></path><path d="M524.33,300.06s.09.07.08.12c-.19,1.24-.21,2.69.86,3.24,0,0,0,.08,0,.07C523.91,303.12,524,301.2,524.33,300.06Z" style="fill: rgb(38, 50, 56); transform-origin: 524.697px 301.775px;" id="elr8debpz3mdp" class="animable"></path><path d="M525.6,298.91c2,.09,1.67,4.12-.2,4S523.91,298.82,525.6,298.91Z" style="fill: rgb(38, 50, 56); transform-origin: 525.557px 300.911px;" id="elm9qbvtvg3m" class="animable"></path><path d="M515.48,295.71a15.13,15.13,0,0,0,1.65-.18,2.64,2.64,0,0,0,1.64-.51.83.83,0,0,0,.1-1,2.1,2.1,0,0,0-2-.7,3.14,3.14,0,0,0-2.05.9A.91.91,0,0,0,515.48,295.71Z" style="fill: rgb(38, 50, 56); transform-origin: 516.802px 294.496px;" id="eln9pjp6sohb" class="animable"></path><path d="M527.58,297.18a15,15,0,0,1-1.62-.33,2.7,2.7,0,0,1-1.59-.66.86.86,0,0,1,0-1.05,2.12,2.12,0,0,1,2.08-.5,3.13,3.13,0,0,1,2,1.1A.91.91,0,0,1,527.58,297.18Z" style="fill: rgb(38, 50, 56); transform-origin: 526.41px 295.87px;" id="eldf5vqcofqqu" class="animable"></path><path d="M514.59,310.33c.26.33.5.77.95.86a3.19,3.19,0,0,0,1.37-.15s.08,0,.05.07a1.68,1.68,0,0,1-1.66.48,1.33,1.33,0,0,1-.84-1.22C514.45,310.3,514.55,310.28,514.59,310.33Z" style="fill: rgb(38, 50, 56); transform-origin: 515.713px 310.974px;" id="elyqjayd1s8b" class="animable"></path><path d="M516.36,306.78a4.24,4.24,0,0,0,2.58,2.23,5.5,5.5,0,0,0,1.51.26H521a.34.34,0,0,0,.29-.25h0v-.13h0v-.1c.15-1,.24-2.42.24-2.42.33.22,2,1.24,2,.74a64.09,64.09,0,0,0,0-13,.12.12,0,0,0-.23,0c-.42,4-.13,8-.49,12a7.59,7.59,0,0,0-1.92-.85c-.14,0-.12,2.83-.22,3.25a.18.18,0,0,1,0,0,5.89,5.89,0,0,1-4.2-1.91C516.4,306.6,516.29,306.67,516.36,306.78Z" style="fill: rgb(38, 50, 56); transform-origin: 520.099px 301.647px;" id="el1px1mvoqm72" class="animable"></path><path d="M520,308.72a5.09,5.09,0,0,1-2.2,1.3,2.26,2.26,0,0,1-1.38-.09c-1-.38-.87-1.29-.59-2.05a5,5,0,0,1,.59-1.13A6.6,6.6,0,0,0,520,308.72Z" style="fill: rgb(38, 50, 56); transform-origin: 517.814px 308.419px;" id="elgk08plu2yk" class="animable"></path><path d="M517.75,310a2.26,2.26,0,0,1-1.38-.09c-1-.38-.87-1.29-.59-2.05A2.37,2.37,0,0,1,517.75,310Z" style="fill: rgb(255, 156, 189); transform-origin: 516.664px 308.964px;" id="elx4g0jltgq9a" class="animable"></path><path d="M501,298.34c3.22.48,4.53-7.36,4.53-7.36s5,.14,8.79-6c0,0,5.42,5.21,10.86,5.36,8.51.22,10.51-10.49,7.89-13.3-3.7-4-12.39-1.12-12.39-1.12s-11-5.71-16.19,1.49a6.14,6.14,0,0,0-6.84,4.84C496.09,287.94,498.61,298,501,298.34Z" style="fill: rgb(38, 50, 56); transform-origin: 515.656px 286.067px;" id="elquy5uc3qzqi" class="animable"></path><path d="M504.21,291.66a11,11,0,0,0,6.83-2.07,8.24,8.24,0,0,0,3.36-6.79c0-.14.22-.14.22,0a9.48,9.48,0,0,1-2.92,7.51,7.69,7.69,0,0,1-7.52,1.59C504.06,291.85,504.07,291.66,504.21,291.66Z" style="fill: rgb(38, 50, 56); transform-origin: 509.369px 287.487px;" id="elelkao6fxtsu" class="animable"></path><path d="M498,278.77c2-1.71,4.57-1.52,7-.92.14,0,.08.26-.06.21-2.34-.77-5.09.32-6.75,2s-1.85,4.15-1.8,6.38A17.43,17.43,0,0,0,501,298a.06.06,0,0,1-.08.08,17.42,17.42,0,0,1-5.31-12.7C495.67,283.08,496.06,280.35,498,278.77Z" style="fill: rgb(38, 50, 56); transform-origin: 500.344px 287.754px;" id="elstsrlglgoqe" class="animable"></path><path d="M520.29,276.23a8.2,8.2,0,0,1,5.22-2.51,9.82,9.82,0,0,1,6.67,2.11,5.54,5.54,0,0,1,1.87,5.2,9.79,9.79,0,0,1-3.41,5.61s-.11,0-.06-.07a9.84,9.84,0,0,0,2.82-5.15,5.11,5.11,0,0,0-2-5c-3.06-2.2-8-3-10.95,0C520.34,276.49,520.19,276.33,520.29,276.23Z" style="fill: rgb(38, 50, 56); transform-origin: 527.197px 280.172px;" id="elpsms8bk6yt" class="animable"></path><path d="M502.93,298.74s-2.64-6.78-5.62-6-2,9.95.83,11.85a3.23,3.23,0,0,0,4.62-.66Z" style="fill: rgb(201, 95, 80); transform-origin: 499.212px 298.978px;" id="elp7ko6mccfu" class="animable"></path><path d="M497.66,295.38c-.05,0-.07.05,0,.07,1.95,1.41,2.6,3.69,2.89,6a1.79,1.79,0,0,0-2.48-1.11.07.07,0,0,0,0,.13,2,2,0,0,1,2,1.19,10.42,10.42,0,0,1,.6,2c.05.22.42.2.4,0v-.05C501.76,300.76,500.56,296.37,497.66,295.38Z" style="fill: rgb(38, 50, 56); transform-origin: 499.437px 299.599px;" id="elr32snhhecbd" class="animable"></path><path d="M470.27,327.09c-1.63,25.82,9.77,62.29,14.67,71.1,7.46,13.41,56.34,12.3,66.16,12.7,4.18.17,0-37.68-4.48-38-3.89-.24-41.57,1.9-42.3.41-.61-1.23-12.29-28.16-21-46.15C475.86,311.69,470.7,320.25,470.27,327.09Z" style="fill: rgb(201, 95, 80); transform-origin: 511.468px 364.682px;" id="elg8ya1hrw3j" class="animable"></path><path d="M537.82,373.13s6.43-.2,6.85-.2a22.67,22.67,0,0,0,6.48-1.34c8.2-2.48,29.76-3.27,44.64,15.65,5.71,7.25,3.11,14.42-4.15,7.94-5.12-4.56-8.27-8.17-10.36-9.19,0,0,1.78,10.35-2.51,14.66a114,114,0,0,1-12,10.46,24.11,24.11,0,0,1-2.16-2.08,12.77,12.77,0,0,1-13.49,1.86l-10.91-.2Z" style="fill: rgb(201, 95, 80); transform-origin: 568.36px 391.163px;" id="el2xa7mkxerz3" class="animable"></path><path d="M559.35,370.47c4.09,1.85,12.7,5.92,18.59,11.69,6.53,6.41,17.4,20.52,12.61,25.3-3.5,3.5-8.12-1.52-8.12-1.52s3.26,6.78-.6,9.25c-3.52,2.25-6.86-1.85-6.86-1.85s1.27,4.45-2.54,6c-4.58,1.82-6.49-7.81-12.72-10C558.31,408.86,559.35,370.47,559.35,370.47Z" style="fill: rgb(201, 95, 80); transform-origin: 575.356px 395.019px;" id="eljdxyl8oxjpc" class="animable"></path><path d="M570,387.94c3.56,2.36,10.28,9.82,12.47,17.82,0,.18-.06.31-.14.16A90,90,0,0,0,570,388,0,0,0,0,1,570,387.94Z" style="fill: rgb(38, 50, 56); transform-origin: 576.235px 396.963px;" id="elp8s713ny0eg" class="animable"></path><path d="M563.73,394.72c2.86,2.36,9.44,10.36,11.38,18.54,0,.18-.07.31-.15.15a96.3,96.3,0,0,0-11.3-18.63S563.69,394.69,563.73,394.72Z" style="fill: rgb(38, 50, 56); transform-origin: 569.385px 404.098px;" id="elipbirdmno3p" class="animable"></path><path d="M499.74,357.22,474.07,377s-5.66-31.51-4.5-46.9c1.21-16,6.5-18.91,16.57-.14S499.74,357.22,499.74,357.22Z" style="fill: rgb(0, 255, 136); transform-origin: 484.577px 346.983px;" id="eln3rex9nrfu" class="animable"></path><path d="M495.14,353.55c-.66.39-11.58,8.21-19.61,14.85a0,0,0,0,0,.06.07,182.94,182.94,0,0,0,19.6-14.84S495.19,353.53,495.14,353.55Z" style="fill: rgb(38, 50, 56); transform-origin: 485.36px 361.009px;" id="elg6ac0covzdm" class="animable"></path><path d="M490.79,334.7c0-.07-.13,0-.12,0a26.85,26.85,0,0,0,1,4c-.28-.57-.56-1.15-.85-1.71-.95-1.83-1.92-3.63-2.86-5.46,0-.07-.13,0-.1,0,1.41,3.29,2.7,6.65,4.21,9.9s3,6.5,4.6,9.72c.87,1.78,2.07,3.91,2.94,5.69-.74.73-1.83,1.49-2.64,2.26-.08.07.05.18.12.12.95-.7,2.21-1.36,3.14-2.19.12-.1-5.24-11.72-7.95-17.17C491.85,338.21,491.35,336.44,490.79,334.7Z" style="fill: rgb(38, 50, 56); transform-origin: 494.044px 345.368px;" id="eljeso1d33zs" class="animable"></path><path d="M469.54,349.32c0-.08.11-.1.13,0a29,29,0,0,1,1.3,4.31c-.05-.69-.11-1.37-.16-2.06-.14-2.22-.24-4.44-.38-6.65,0-.08.11-.1.12,0,.52,3.85,1.2,7.68,1.59,11.54s2.34,18,2.52,20.12c0,0,1.69-1.45,2.8-2.38.08-.07.1.22,0,.3a14.79,14.79,0,0,1-3.53,3.27c-.16.06-2.38-16.09-2.89-22.65C470.52,353.17,470,351.25,469.54,349.32Z" style="fill: rgb(38, 50, 56); transform-origin: 473.534px 361.311px;" id="elxu8b4op3529" class="animable"></path></g><g id="freepik--character-1--inject-86" class="animable" style="transform-origin: 282.899px 140.124px;"><path d="M161,105.32S113.47,89,113.45,88.93c-7.84-5.64-14.8-10.44-18.64-12.59l-.06,0c-1.45-.81-2.44-1.24-2.84-1.16h-.08c-3.26,1.19-50.17,62.47-51.08,65.16s6.67,5.51,10.39,4.59,32.18-16.37,32.18-16.37l47.76,16Z" style="fill: rgb(119, 68, 66); transform-origin: 100.837px 110.139px;" id="elwa9ugajpd5" class="animable"></path><path d="M121.2,91.6,90.85,131.05l-7.53-2.52S54.87,144,51.14,144.89,39.82,143,40.75,140.31s47.82-64,51.08-65.16c0,0,0,0,.08,0a6.85,6.85,0,0,1,2.83,1.17l.07,0c3.84,2.16,10.8,7,18.64,12.6Z" style="fill: rgb(235, 235, 235); transform-origin: 80.9359px 110.105px;" id="elkunzrs26om" class="animable"></path><path d="M80.52,132.34c3.7-3.66,6.62-9.26,5.85-14.55,0-.2-.32-.16-.37,0A72.54,72.54,0,0,1,80,132,.33.33,0,0,0,80.52,132.34Z" style="fill: rgb(38, 50, 56); transform-origin: 83.2425px 125.031px;" id="eli5nhnf4tm6o" class="animable"></path><path d="M76.58,134.11c3.7-3.66,6.62-9.26,5.85-14.55,0-.2-.32-.16-.37,0a71.85,71.85,0,0,1-6,14.15A.33.33,0,0,0,76.58,134.11Z" style="fill: rgb(38, 50, 56); transform-origin: 79.283px 126.818px;" id="elg479s1axtku" class="animable"></path><path d="M72.65,135.88c3.7-3.67,6.62-9.26,5.85-14.55,0-.21-.32-.16-.37,0a72.45,72.45,0,0,1-6,14.15A.33.33,0,0,0,72.65,135.88Z" style="fill: rgb(38, 50, 56); transform-origin: 75.353px 128.586px;" id="elx6mug7sfye" class="animable"></path><path d="M40.75,140.31c.91-2.69,47.81-64,51.08-65.16,1.24-.48,10.56,5.83,21.61,13.79l.35.25L84,129.06l-.66-.53S54.87,144,51.13,144.89,39.82,143,40.75,140.31Z" style="fill: rgb(0, 255, 136); transform-origin: 77.2308px 110.092px;" id="elmhrpva2vs" class="animable"></path><path d="M43.65,141.44C51.81,131.3,83.77,89.65,91.06,79c.06-.08,0-.13-.06-.05-8.31,9.87-39.93,51.78-47.52,62.35C43.32,141.53,43.48,141.65,43.65,141.44Z" style="fill: rgb(38, 50, 56); transform-origin: 67.2494px 110.229px;" id="elem6ryk1ow7" class="animable"></path><path d="M99.89,140.2c.35.47,61.14,19.48,90.86,25.22s91.53,8.62,104.16,9.08c0,0,28.5,3.7,51.85,2,.05,0-10.92-58.7-10.92-58.7s-25.38-5.27-57.87,3.06c-2,.52-72.92-4.35-82.84-7.61-15.2-5-77-25.76-77.64-26.64Z" style="fill: rgb(55, 71, 79); transform-origin: 223.325px 131.778px;" id="el5ic5w211iad" class="animable"></path><path d="M324.49,156.7c-13.89-.61-27.8-.79-41.7-1.13l-41.9-1c-6.88-.17-13.77-.29-20.65-.53A122.36,122.36,0,0,1,200,151.84c-6.58-1.35-13.08-3.1-19.58-4.8s-13-3.45-19.56-5.26q-19.6-5.44-39.07-11.41L117,128.88a.1.1,0,0,0-.06.19c12.84,4.36,25.76,8.5,38.78,12.31s26,7.51,39.21,10.63a113.43,113.43,0,0,0,19.83,3c6.81.4,13.65.43,20.47.57l42.11.89c14,.29,27.94.6,41.91.83,1.73,0,3.45,0,5.17,0A.31.31,0,0,0,324.49,156.7Z" style="fill: rgb(38, 50, 56); transform-origin: 220.787px 143.089px;" id="elsmawbxrvich" class="animable"></path><path d="M126.17,92.49c-.24,1.41-.76,2.86-1.14,4.24-.43,1.57-.91,3.13-1.33,4.69-.82,3-1.69,6-2.57,9-1.79,6.06-3.72,12.09-5.8,18.05q-.85,2.46-1.73,4.91c-.62,1.75-1.34,3.47-1.88,5.24,0,.13-.2.08-.16,0,1-3,1.65-6.19,2.49-9.26s1.71-6,2.61-9c1.8-6,3.75-12.08,5.86-18,.58-1.64,1.12-3.29,1.69-4.93.3-.88.63-1.74.94-2.62s.47-1.58.82-2.33A.11.11,0,1,1,126.17,92.49Z" style="fill: rgb(38, 50, 56); transform-origin: 118.868px 115.515px;" id="el327p3idsgwl" class="animable"></path><path d="M141.88,174.23S100,167.92,99.93,167.9c-7.79-5.7-14.73-10.55-18.55-12.73l-.06,0c-1.44-.82-2.43-1.26-2.83-1.18h-.08c-3.27,1.17-50.59,62.13-51.52,64.81s6.63,5.56,10.36,4.66,32.28-16.15,32.28-16.15l42.19,5.91Z" style="fill: rgb(119, 68, 66); transform-origin: 84.3457px 188.804px;" id="ellly303yivx" class="animable"></path><path d="M106.5,168.9,77.74,208.44l-8.21-1.15S41,222.51,37.25,223.44s-11.31-2-10.36-4.66S75.14,155.14,78.41,154c0,0,0,0,.08,0a7,7,0,0,1,2.82,1.19s0,0,.07,0c3.83,2.17,10.76,7,18.56,12.72Z" style="fill: rgb(235, 235, 235); transform-origin: 66.6541px 188.808px;" id="eln9013lr6fm" class="animable"></path><path d="M66.71,211.08c3.73-3.64,6.68-9.21,6-14.51,0-.2-.32-.16-.37,0a71.62,71.62,0,0,1-6.1,14.11A.33.33,0,0,0,66.71,211.08Z" style="fill: rgb(38, 50, 56); transform-origin: 69.5144px 203.778px;" id="el8vrkm3mex6r" class="animable"></path><path d="M62.76,212.82c3.73-3.63,6.69-9.21,5.95-14.51,0-.2-.32-.16-.37,0a71.92,71.92,0,0,1-6.09,14.11A.32.32,0,0,0,62.76,212.82Z" style="fill: rgb(38, 50, 56); transform-origin: 65.5025px 205.559px;" id="el8zdzu3cw65r" class="animable"></path><path d="M58.82,214.57c3.72-3.64,6.68-9.22,5.95-14.51,0-.21-.32-.17-.38,0a71.67,71.67,0,0,1-6.09,14.12A.33.33,0,0,0,58.82,214.57Z" style="fill: rgb(38, 50, 56); transform-origin: 61.5728px 207.288px;" id="elbxcw9qwzz7" class="animable"></path><path d="M26.89,218.78c.93-2.68,48.25-63.64,51.52-64.82,1.24-.46,10.52,5.91,21.52,13.94l.34.26L70.18,207.82l-.65-.53S41,222.52,37.24,223.44,25.94,221.46,26.89,218.78Z" style="fill: rgb(0, 255, 136); transform-origin: 63.539px 188.775px;" id="ela5ql1ctwsks" class="animable"></path><path d="M29.78,219.93c8.23-10.08,40.47-51.51,47.84-62.1.06-.09,0-.13-.07-.05-8.37,9.81-40.27,51.5-47.93,62C29.45,220,29.61,220.14,29.78,219.93Z" style="fill: rgb(38, 50, 56); transform-origin: 53.596px 188.885px;" id="el3x3k9553zqp" class="animable"></path><path d="M288,153s-73.36,21.36-75.3,21.71c-7.75,1.4-104.64-8.43-104.64-8.43L82.93,216.8s107,15.26,134.47,10.25c22.16-4,86-21.32,130.18-46.23l-11.45-61.44s-27.65,5.7-45.37,22.06A104.54,104.54,0,0,1,288,153Z" style="fill: rgb(55, 71, 79); transform-origin: 215.255px 173.72px;" id="elbkhwt2ljl9o" class="animable"></path><path d="M287.51,162.11c.52-3.46.86-6.93,1.05-10.43s.24-7,.49-10.54c0-.13-.2-.16-.21,0-.45,3.52-1,7-1.39,10.56a75.69,75.69,0,0,0-.32,10.43A.19.19,0,0,0,287.51,162.11Z" style="fill: rgb(38, 50, 56); transform-origin: 288.062px 151.67px;" id="elocdbld7tcfq" class="animable"></path><path d="M252.36,164.15c7.6-2.21,15.18-4.48,22.72-6.87,2.13-.67,4.25-1.37,6.37-2.06A51.33,51.33,0,0,0,287.5,153c.11-.05,0-.2-.07-.19a49.53,49.53,0,0,0-5.84,1.5l-5.5,1.58c-3.77,1.08-7.55,2.14-11.31,3.24-7.54,2.21-15.11,4.33-22.64,6.55-4.29,1.26-8.58,2.48-12.82,3.92a.26.26,0,0,0,.11.51C237.16,168.54,244.79,166.35,252.36,164.15Z" style="fill: rgb(38, 50, 56); transform-origin: 258.331px 161.463px;" id="el5jss0rnxpee" class="animable"></path><path d="M116.54,170.89c-.42,1.37-1.11,2.75-1.66,4.07-.62,1.51-1.29,3-1.9,4.49q-1.78,4.35-3.67,8.66-3.8,8.69-8,17.19c-.77,1.56-1.55,3.11-2.33,4.67s-1.75,3.27-2.51,5c-.06.13-.21.06-.15-.07,1.33-2.89,2.41-5.94,3.62-8.88s2.44-5.77,3.7-8.64c2.54-5.78,5.22-11.52,8-17.16.78-1.56,1.52-3.13,2.29-4.69.41-.83.84-1.65,1.26-2.48s.66-1.51,1.1-2.21A.11.11,0,0,1,116.54,170.89Z" style="fill: rgb(38, 50, 56); transform-origin: 106.424px 192.888px;" id="el0jk3p2vpfbf" class="animable"></path><path d="M336.44,172.65a727.52,727.52,0,0,1-81.73,34.72c-14.08,4.49-28.27,9.56-43.13,10.63-14.79.38-29.66-.68-44.41-1.67q-29.53-2.12-59-5.24,29.49,2.53,59,4.48c14.73.83,29.56,1.92,44.32,1.48,14.69-1.15,28.88-6.12,42.88-10.54a838.89,838.89,0,0,0,82-33.86Z" style="fill: rgb(38, 50, 56); transform-origin: 222.305px 195.365px;" id="el547m9naulp5" class="animable"></path><path d="M407.61,113.82c-3.17-1.17-7.18-9.72-7.64-15.68,0-.41,2-3.64,4.37-7.68,1.4-2.46,2.9-5.23,4.09-7.86.24-.54,1.63,1.29,1.63,1.29l3,2.35,10,7.82a46,46,0,0,0-6.15,9.37,6.53,6.53,0,0,0-.38,1.13s0,.12-.05.19C415.91,106.94,412.57,115.66,407.61,113.82Z" style="fill: rgb(119, 68, 66); transform-origin: 411.515px 98.2867px;" id="elo6qkhpqmqim" class="animable"></path><path d="M416.56,104.56s0,.12-.05.19a11.72,11.72,0,0,1-1.74-.68c-11-5.27-6-20-6-20l4.3,2.17,10,7.82a46,46,0,0,0-6.15,9.37A6.53,6.53,0,0,0,416.56,104.56Z" style="fill: rgb(38, 50, 56); transform-origin: 415.353px 94.41px;" id="eljcor67xovu8" class="animable"></path><path d="M405.65,64.86c-2.58,6.18-1,25,3.08,29.51,6,6.62,16.69,8.26,22.54.86,5.68-7.18,3.25-31.6-1.45-35.84C422.91,53.15,409.47,55.72,405.65,64.86Z" style="fill: rgb(119, 68, 66); transform-origin: 419.482px 78.0336px;" id="elziym9o1wfvn" class="animable"></path><path d="M423.62,77.4s-.09.08-.08.13c.19,1.25.2,2.72-.89,3.27,0,0,0,.08,0,.07C424,80.51,424,78.56,423.62,77.4Z" style="fill: rgb(38, 50, 56); transform-origin: 423.244px 79.1354px;" id="el79wbh83nodh" class="animable"></path><path d="M422.34,76.22c-2,.09-1.72,4.18.18,4.09S424.05,76.15,422.34,76.22Z" style="fill: rgb(38, 50, 56); transform-origin: 422.377px 78.2653px;" id="elh45osqps3us" class="animable"></path><path d="M430.33,76.64s.1,0,.1.1c.07,1.27.35,2.71,1.53,3a0,0,0,0,1,0,.08C430.54,79.76,430.18,77.85,430.33,76.64Z" style="fill: rgb(38, 50, 56); transform-origin: 431.129px 78.23px;" id="el4po5waumh1" class="animable"></path><path d="M431.35,75.22c2-.32,2.51,3.75.64,4S429.66,75.49,431.35,75.22Z" style="fill: rgb(38, 50, 56); transform-origin: 431.728px 77.2167px;" id="elzlwsxnoaq5s" class="animable"></path><path d="M420.58,74.49c.54-.19,1-.45,1.53-.69a2.7,2.7,0,0,0,1.43-1,.87.87,0,0,0-.22-1,2.15,2.15,0,0,0-2.18,0,3.17,3.17,0,0,0-1.7,1.5A.93.93,0,0,0,420.58,74.49Z" style="fill: rgb(38, 50, 56); transform-origin: 421.502px 73.0149px;" id="elpys9a2pi3y" class="animable"></path><path d="M432.64,73.52c-.57,0-1.09-.19-1.65-.29a2.74,2.74,0,0,1-1.64-.62.86.86,0,0,1,0-1,2.13,2.13,0,0,1,2.09-.58,3.15,3.15,0,0,1,2,1A.92.92,0,0,1,432.64,73.52Z" style="fill: rgb(38, 50, 56); transform-origin: 431.415px 72.24px;" id="ela4v3cbghrm" class="animable"></path><path d="M422.66,89.33c.32.27.66.65,1.12.65a3.51,3.51,0,0,0,1.33-.42s.09,0,.06.06a1.69,1.69,0,0,1-1.55.81,1.33,1.33,0,0,1-1.08-1C422.51,89.32,422.61,89.29,422.66,89.33Z" style="fill: rgb(38, 50, 56); transform-origin: 423.855px 89.8732px;" id="elqyeg4hz5d1q" class="animable"></path><path d="M423.68,85.44a4.32,4.32,0,0,0,3,1.68,5.38,5.38,0,0,0,1.55-.06,1.36,1.36,0,0,0,.29-.06,1.4,1.4,0,0,0,.28-.06.32.32,0,0,0,.23-.3h0a.5.5,0,0,0,0-.13h0v-.11c0-1-.26-2.45-.26-2.45.37.15,2.24.82,2.18.31a65.76,65.76,0,0,0-2.73-12.89.12.12,0,0,0-.23.05c.41,4,1.53,8,2,12.06a7.8,7.8,0,0,0-2.08-.45c-.14,0,.46,2.84.45,3.28v0a6,6,0,0,1-4.57-1C423.69,85.25,423.59,85.34,423.68,85.44Z" style="fill: rgb(38, 50, 56); transform-origin: 427.298px 79.224px;" id="elxx07dtg464" class="animable"></path><path d="M427.65,86.62a5.16,5.16,0,0,1-1.92,1.75,2.33,2.33,0,0,1-1.39.2c-1-.19-1.13-1.11-1-1.92a5.59,5.59,0,0,1,.36-1.25A6.64,6.64,0,0,0,427.65,86.62Z" style="fill: rgb(38, 50, 56); transform-origin: 425.474px 87.0005px;" id="els04qx7lo65c" class="animable"></path><path d="M425.73,88.37a2.33,2.33,0,0,1-1.39.2c-1-.19-1.13-1.11-1-1.92A2.38,2.38,0,0,1,425.73,88.37Z" style="fill: rgb(119, 68, 66); transform-origin: 424.514px 87.6244px;" id="el258cxqpiju" class="animable"></path><path d="M405.5,84.79c3.41-1.44,3.73-13.5,3.73-13.5s.59,5,1.51,4.79,3.94-7.54,3.76-12.48A38.75,38.75,0,0,0,424,66.85c4.64.77,9.55-.14,9.45-.9-.28-2.26-3.07-7.91-6.41-9.63a16.09,16.09,0,0,0-16.13,0c-6.95,3.71-8.28,8.64-8.91,12.41S404.25,85.32,405.5,84.79Z" style="fill: rgb(38, 50, 56); transform-origin: 417.681px 69.4794px;" id="eltxmkmc4xsyj" class="animable"></path><path d="M408.09,80.27s-3.7-6.3-6.52-5-.38,10.18,2.7,11.62a3.25,3.25,0,0,0,4.48-1.4Z" style="fill: rgb(119, 68, 66); transform-origin: 404.538px 81.1937px;" id="elwf3nfl60vhp" class="animable"></path><path d="M402.33,77.78a0,0,0,0,0,0,.08c2.16,1.08,3.17,3.24,3.82,5.45a1.8,1.8,0,0,0-2.64-.7c-.06,0,0,.14.05.13a2,2,0,0,1,2.14.87,9.63,9.63,0,0,1,.91,1.85c.09.21.45.13.4-.11l0,0C407.25,82.46,405.36,78.31,402.33,77.78Z" style="fill: rgb(38, 50, 56); transform-origin: 404.68px 81.6806px;" id="el8624n2sbzkj" class="animable"></path><path d="M423,54.55a27,27,0,0,0-7.67-2.27c-3-.37-12.33.37-14.57,2.25s-2.82,10.7-2.88,12,.54,9.09,3.36,11,3.08-11.37,7.53-15.78S423,54.55,423,54.55Z" style="fill: rgb(0, 255, 136); transform-origin: 410.438px 64.9521px;" id="eljpqz4ges23" class="animable"></path><g id="el6wrp4zununn"><path d="M423,54.55s-9.78,2.76-14.23,7.17-4.7,17.65-7.53,15.78c-1.24-.83-1.85-2.06-2.37-4.13.59-3.88,2.14-9.89,5.36-14.06,3-3.9,8.21-5.88,13.78-6.52A31.16,31.16,0,0,1,423,54.55Z" style="opacity: 0.1; transform-origin: 410.935px 65.2349px;" class="animable"></path></g><path d="M402,85.36c.25-3.53,3.82-13,7.58-18.42s14.82-8.61,16.37-8.53c3.76.21,4.44,2.12,5,1.78s-2.69-3.92-3.75-4.55-3.91-2.13-5.54-2.08S410,54.62,406.37,58.92s-8.82,16.36-7.86,19.44c.23.74,1.21,1.21,1.53,2.26.41,1.38.71,3,1.12,3.93C401.5,85.33,402,85.67,402,85.36Z" style="fill: rgb(0, 255, 136); transform-origin: 414.704px 69.5163px;" id="elomxvoit40h" class="animable"></path><path d="M410.47,64.51A18.75,18.75,0,0,1,408,62.72a12.62,12.62,0,0,1-2.09-2.23.06.06,0,0,0-.1.06,9.67,9.67,0,0,0,1.9,2.5,8.4,8.4,0,0,0,2.66,1.64C410.49,64.73,410.56,64.56,410.47,64.51Z" style="fill: rgb(38, 50, 56); transform-origin: 408.159px 62.5841px;" id="elhetz1dvvwp4" class="animable"></path><path d="M402,81.83c-.1-.25-.27-.48-.39-.72a4.58,4.58,0,0,1-.33-.87,8.43,8.43,0,0,0-.4-1.72,6.88,6.88,0,0,0-.83-1.17,2.32,2.32,0,0,1-.7-1.44c0-.07-.12-.07-.12,0,0,1.08.72,1.84,1.19,2.73a11.6,11.6,0,0,1,.49,1.84,2.77,2.77,0,0,0,.93,1.47C401.9,82,402,81.92,402,81.83Z" style="fill: rgb(38, 50, 56); transform-origin: 400.615px 78.9115px;" id="elux4b393l3ie" class="animable"></path><path d="M403.2,78a13.87,13.87,0,0,1-1-1.19,11.64,11.64,0,0,1-.77-1.32c-.22-.45-.41-.91-.62-1.37s-.57-1-.8-1.58c0-.07-.13,0-.1,0,.23.57.37,1.18.59,1.75a13.39,13.39,0,0,0,.67,1.44,8.21,8.21,0,0,0,.84,1.27,3.76,3.76,0,0,0,1.14,1S403.22,78,403.2,78Z" style="fill: rgb(38, 50, 56); transform-origin: 401.555px 75.2544px;" id="el0h2ohhpl2up7" class="animable"></path><path d="M404.48,74.56a10,10,0,0,1-1.93-2.17c-.51-.79-1-1.62-1.44-2.45,0,0-.13,0-.11,0a12.25,12.25,0,0,0,1.22,2.68,6.55,6.55,0,0,0,.91,1.12,6.09,6.09,0,0,0,1.27.87C404.46,74.69,404.53,74.61,404.48,74.56Z" style="fill: rgb(38, 50, 56); transform-origin: 402.747px 72.292px;" id="elju4cx1qe01t" class="animable"></path><path d="M405.87,71.25a3.5,3.5,0,0,1-.94-.94c-.3-.4-.6-.8-.89-1.21s-.55-.78-.83-1.18a3.49,3.49,0,0,1-.63-1.3c0-.06-.12-.05-.12,0a3.73,3.73,0,0,0,.41,1.38,9.52,9.52,0,0,0,.8,1.38,12.86,12.86,0,0,0,1,1.22,2.3,2.3,0,0,0,1.14.78A.08.08,0,0,0,405.87,71.25Z" style="fill: rgb(38, 50, 56); transform-origin: 404.174px 68.9793px;" id="el1opeftlzks4" class="animable"></path><path d="M406.87,67.06c-.33-.32-.65-.64-.95-1s-.59-.7-.87-1.07-.59-.75-.86-1.15a.06.06,0,0,0-.1.06,10.25,10.25,0,0,0,.65,1.28,10.63,10.63,0,0,0,.86,1.14,10.26,10.26,0,0,0,1,1,3.78,3.78,0,0,0,1.15.8.08.08,0,0,0,.1-.12A7.18,7.18,0,0,0,406.87,67.06Z" style="fill: rgb(38, 50, 56); transform-origin: 405.977px 65.9755px;" id="elmt4phyknlmm" class="animable"></path><path d="M413.17,62.49c-.35-.43-.69-.85-1.08-1.25a13.4,13.4,0,0,0-1.25-1.14,15.35,15.35,0,0,0-2.75-1.84s-.13,0-.07.09c1.67,1.42,3.41,2.78,5.07,4.23C413.14,62.63,413.22,62.55,413.17,62.49Z" style="fill: rgb(38, 50, 56); transform-origin: 410.595px 60.4279px;" id="elnx38hdczjuq" class="animable"></path><path d="M415.3,59.47a7.61,7.61,0,0,0-1.2-1.14,15.67,15.67,0,0,0-3-1.67c-.07,0-.13.05-.06.1.92.6,1.84,1.19,2.73,1.85.43.33.86.66,1.26,1s.7.83,1.08,1.21c0,0,.09,0,.08,0A4.21,4.21,0,0,0,415.3,59.47Z" style="fill: rgb(38, 50, 56); transform-origin: 413.6px 58.74px;" id="elczbkrh2bdgo" class="animable"></path><path d="M418.24,58.08a8.54,8.54,0,0,0-1.11-1.14,8.89,8.89,0,0,0-2.58-1.5.06.06,0,0,0-.05.1,18.43,18.43,0,0,1,2.44,1.76c.38.33.74.68,1.11,1a13.5,13.5,0,0,0,1.07,1.07s.07,0,.06,0A8.78,8.78,0,0,0,418.24,58.08Z" style="fill: rgb(38, 50, 56); transform-origin: 416.833px 57.4049px;" id="ellp8fu4ps8r9" class="animable"></path><path d="M420.36,56.31c-.37-.3-.76-.58-1.15-.86a4.35,4.35,0,0,0-1.23-.68c-.06,0-.09.06,0,.1.72.57,1.43,1.17,2.15,1.75a11.83,11.83,0,0,1,1.65,2,0,0,0,0,0,.07,0A4.62,4.62,0,0,0,420.36,56.31Z" style="fill: rgb(38, 50, 56); transform-origin: 419.887px 56.695px;" id="eln0q0g2z5hv" class="animable"></path><path d="M423,55.74a7.23,7.23,0,0,0-2.36-1.46c-.06,0-.11.07,0,.1A8.89,8.89,0,0,1,422.75,56a12.18,12.18,0,0,1,1.69,2.09s.09,0,.08,0A6.14,6.14,0,0,0,423,55.74Z" style="fill: rgb(38, 50, 56); transform-origin: 422.548px 56.185px;" id="elbb72ajdj4ba" class="animable"></path><path d="M426.48,57.31a4,4,0,0,0-.3-.53,5.61,5.61,0,0,0-.79-1,12,12,0,0,0-2-1.54c-.06,0-.12.06-.06.1A10.17,10.17,0,0,1,425.2,56a7.62,7.62,0,0,1,.76.94,5.19,5.19,0,0,1,.31.5,4.14,4.14,0,0,0,.3.5.06.06,0,0,0,.1,0A1.64,1.64,0,0,0,426.48,57.31Z" style="fill: rgb(38, 50, 56); transform-origin: 424.988px 56.1034px;" id="elh6biq1xkuq7" class="animable"></path><path d="M428.61,57.5a8.27,8.27,0,0,0-.65-.79,7.11,7.11,0,0,0-.74-.71c-.26-.22-.54-.44-.8-.67-.06-.06-.14,0-.07.09a6.55,6.55,0,0,1,.75.74l.66.74.66.74a8.09,8.09,0,0,0,.67.76s.09,0,.07-.06A4.67,4.67,0,0,0,428.61,57.5Z" style="fill: rgb(38, 50, 56); transform-origin: 427.743px 56.8529px;" id="elhlywykahjqr" class="animable"></path><path d="M310.55,115.72s22.79,72.15,23.88,72.32c.41.06,17.15,1.8,23.76-4.36,18.11-16.85,51.77-51.89,57.56-71.18,1.55-5.19-5.51-19.3-16.32-19.15-13.42.19-52.15,7.18-78.37,15.56C310.55,112.27,310.63,115.45,310.55,115.72Z" style="fill: rgb(166, 166, 166); transform-origin: 363.256px 140.83px;" id="elyym6jys3avf" class="animable"></path><path d="M397.72,106.87c4.57,10.2,27,46.77,41.47,49.54,9.2,1.76,40.47-1.53,50.41-6.2,5.57-2.62-4.8-30.27-10.35-29.73-8.4.82-27.95,5.46-31.17,5.65s-25.35-18.44-37.74-28C399.18,89.59,395,100.86,397.72,106.87Z" style="fill: rgb(119, 68, 66); transform-origin: 444.056px 125.968px;" id="el60y21x1ijnc" class="animable"></path><path d="M477.21,121.36s11.45-5,19.09-7.87c4.27-1.62,11.82-3.74,15.5-3.49,5.5.36,28.26,5.41,27.15,11-1,5-20-1.79-20-1.79s19.79,5.18,17.47,11-22.76-4.73-22.76-4.73,20.21,5.78,16.87,11.41C528,141.09,509,132.57,509,132.57s17.33,5.09,14.93,9.57c-2.66,5-20.74-1.8-20.74-1.8-8,10.37-16.1,12-22,12.51C479.74,153,477.21,121.36,477.21,121.36Z" style="fill: rgb(119, 68, 66); transform-origin: 508.1px 131.415px;" id="eliqsrn2rfsw" class="animable"></path><path d="M512.22,116.93c2.35.52,4.73,1,7,1.77s4.56,1.54,6.77,2.48a41.35,41.35,0,0,1,8.26,4.48c-4.8-2.86-13-5.61-15.25-6.34s-4.54-1.58-6.83-2.31C512.13,117,512.17,116.91,512.22,116.93Z" style="fill: rgb(38, 50, 56); transform-origin: 523.202px 121.294px;" id="elmuhn2fyxoia" class="animable"></path><path d="M509.43,125.15c3,.8,5.94,1.49,8.87,2.42s5.61,2.06,8.46,3.18c.22.09.1.18-.13.1-2.89-1-5.64-1.72-8.54-2.7s-5.76-2.06-8.68-2.93C509.36,125.21,509.39,125.14,509.43,125.15Z" style="fill: rgb(38, 50, 56); transform-origin: 518.13px 128.015px;" id="elu5ueljgzzyj" class="animable"></path><path d="M505.77,131.78a69.09,69.09,0,0,1,13.28,4.73c.21.1.05.2-.18.11-4.38-1.65-7.81-3-13.14-4.68C505.65,131.91,505.67,131.76,505.77,131.78Z" style="fill: rgb(38, 50, 56); transform-origin: 512.414px 134.217px;" id="eltffxjo54an" class="animable"></path><path d="M469.05,120.25l11.7,35.52S449,162,436.43,157s-29-30.09-36.74-44.77-3.39-26.85,16.79-10.33,29.95,22.9,31.38,23.21S469.05,120.25,469.05,120.25Z" style="fill: rgb(166, 166, 166); transform-origin: 438.419px 126.457px;" id="el857znraenbq" class="animable"></path><path d="M422.68,146.09c-1-1.47-9.4-12.34-10.21-13.51Q410,129,407.6,125.4c-3.22-4.86-6.36-9.8-9.89-14.44a.05.05,0,1,0-.09.06,112,112,0,0,0,5.6,9.74l-.47-.41c-1.33-1.18-2.71-2.32-3.92-3.62-.08-.1-.22,0-.13.15,1.25,1.24,2.36,2.62,3.57,3.9.58.62,1.16,1.23,1.8,1.81.23.21.49.45.76.67.64,1,1.28,1.94,1.94,2.89,1.67,2.42,3.47,4.75,5.19,7.14,3,4.21,9.67,11.81,10.57,12.93C422.62,146.33,422.77,146.21,422.68,146.09Z" style="fill: rgb(38, 50, 56); transform-origin: 410.159px 128.599px;" id="eljw2dknflgpf" class="animable"></path><path d="M473.3,155.09c-.6-2.66-1.57-5.26-2.42-7.86s-1.7-5.1-2.57-7.65c-1.76-5.13-3.42-10.35-5.51-15.36a.1.1,0,0,0-.19.06c1.26,5.33,3.08,10.55,4.82,15.73q1.32,3.9,2.73,7.77a72.55,72.55,0,0,0,2.94,7.4C473.16,155.29,473.32,155.2,473.3,155.09Z" style="fill: rgb(38, 50, 56); transform-origin: 467.955px 139.694px;" id="ele0j07qoyun" class="animable"></path><path d="M411.16,103.43c-2-6.94-13-20.54-21.26-22.33-10.45-2.26-41,15.8-39.92,19.82,1.86,7.19,31.81,9.37,41.12,7.17S411.16,103.43,411.16,103.43Z" style="fill: rgb(166, 166, 166); transform-origin: 380.556px 94.9071px;" id="elx2ef08dun7" class="animable"></path><path d="M400.59,107.33c-1.65,0-3.31,0-5,0,2.77-.58,5.54-1.13,8.28-1.79.09,0,.07-.17,0-.17a90.6,90.6,0,0,0-9.4,1.38c-3.19.52-6.39,1-9.61,1.4a64.8,64.8,0,0,1-9.65.49,68.78,68.78,0,0,1-10.1-1.23q-2.82-.54-5.63-1.18a39.74,39.74,0,0,1-5.87-1.86c-.35-.15-.27.09-.15.15a28.44,28.44,0,0,0,4.81,1.81c1.7.49,3.4,1,5.12,1.45a59.46,59.46,0,0,0,10,2c6.63.66,13.12-.44,19.58-1.87l.37-.08c1,0,2-.07,3-.14,1.44-.12,2.87-.16,4.31-.16C400.72,107.53,400.72,107.33,400.59,107.33Z" style="fill: rgb(38, 50, 56); transform-origin: 378.644px 107.149px;" id="elw5023u24dh" class="animable"></path></g><g id="freepik--Lines--inject-86" class="animable" style="transform-origin: 331.275px 256.845px;"><path d="M396.09,331.46c-27.92.48-59.25.49-87.17,0,27.92-.5,59.25-.49,87.17,0Z" style="fill: rgb(38, 50, 56); transform-origin: 352.505px 331.456px;" id="el59t7hhxuscu" class="animable"></path><path d="M478.16,203.68c-27.93.49-59.26.5-87.18,0,27.92-.49,59.25-.48,87.18,0Z" style="fill: rgb(38, 50, 56); transform-origin: 434.57px 203.684px;" id="elqt35zurif6q" class="animable"></path><path d="M336.2,337.61c-19.8.49-41.59.5-61.4,0,19.81-.5,41.6-.49,61.4,0Z" style="fill: rgb(38, 50, 56); transform-origin: 305.5px 337.61px;" id="eltd71zpmyat" class="animable"></path><path d="M500.81,196.44c-19.8.49-41.59.49-61.4,0,19.8-.5,41.6-.5,61.4,0Z" style="fill: rgb(38, 50, 56); transform-origin: 470.11px 196.436px;" id="elhnwk4v3us0h" class="animable"></path><path d="M116.6,409.36c-19.81.49-41.6.49-61.4,0,19.8-.5,41.59-.5,61.4,0Z" style="fill: rgb(38, 50, 56); transform-origin: 85.9px 409.356px;" id="el0bixl1jddyg" class="animable"></path><path d="M480.8,212c-16.2.5-34,.5-50.23,0,16.2-.49,34-.49,50.23,0Z" style="fill: rgb(38, 50, 56); transform-origin: 455.685px 212.004px;" id="elsgzrejdsoph" class="animable"></path><path d="M607.35,280.63c-16.2.49-34,.49-50.22,0,16.2-.5,34-.5,50.22,0Z" style="fill: rgb(38, 50, 56); transform-origin: 582.24px 280.626px;" id="ela7d9ajwob7q" class="animable"></path><path d="M130.21,400.91c-16.19.5-34,.5-50.22,0,16.2-.49,34-.49,50.22,0Z" style="fill: rgb(38, 50, 56); transform-origin: 105.1px 400.914px;" id="elnpukxg3m2rb" class="animable"></path><path d="M410.16,151.09c-27.92.48-59.25.49-87.18,0,27.93-.5,59.26-.49,87.18,0Z" style="fill: rgb(38, 50, 56); transform-origin: 366.57px 151.086px;" id="el1m1zuf9qnue" class="animable"></path><path d="M424.72,159.38c-16.2.49-34,.49-50.23,0,16.2-.5,34-.5,50.23,0Z" style="fill: rgb(38, 50, 56); transform-origin: 399.605px 159.376px;" id="elb5l5ea2dx3h" class="animable"></path><path d="M312.19,104.33c-16.2.5-34,.5-50.23,0,16.2-.49,34-.49,50.23,0Z" style="fill: rgb(38, 50, 56); transform-origin: 287.075px 104.334px;" id="elz7d83fzp5ii" class="animable"></path></g><defs>     <filter id="active" height="200%">         <feMorphology in="SourceAlpha" result="DILATED" operator="dilate" radius="2"></feMorphology>                <feFlood flood-color="#32DFEC" flood-opacity="1" result="PINK"></feFlood>        <feComposite in="PINK" in2="DILATED" operator="in" result="OUTLINE"></feComposite>        <feMerge>            <feMergeNode in="OUTLINE"></feMergeNode>            <feMergeNode in="SourceGraphic"></feMergeNode>        </feMerge>    </filter>    <filter id="hover" height="200%">        <feMorphology in="SourceAlpha" result="DILATED" operator="dilate" radius="2"></feMorphology>                <feFlood flood-color="#ff0000" flood-opacity="0.5" result="PINK"></feFlood>        <feComposite in="PINK" in2="DILATED" operator="in" result="OUTLINE"></feComposite>        <feMerge>            <feMergeNode in="OUTLINE"></feMergeNode>            <feMergeNode in="SourceGraphic"></feMergeNode>        </feMerge>            <feColorMatrix type="matrix" values="0   0   0   0   0                0   1   0   0   0                0   0   0   0   0                0   0   0   1   0 "></feColorMatrix>    </filter></defs></svg>